<svg width="128" height="257" viewBox="0 0 128 257" fill="none" xmlns="http://www.w3.org/2000/svg">
<g clip-path="url(#clip0_2459_52909)">
<g clip-path="url(#clip1_2459_52909)">
<path d="M126.485 65.7559H126.934C127.183 65.7559 127.384 65.9566 127.384 66.2042V95.4952C127.384 95.7428 127.183 95.9436 126.934 95.9436H126.485V65.7559Z" fill="#1C3343"/>
<path d="M1.51489 102.22L1.06536 102.22C0.817088 102.22 0.615825 102.019 0.615825 101.771L0.615827 84.137C0.615827 83.8894 0.81709 83.6887 1.06536 83.6887L1.51489 83.6887L1.51489 102.22Z" fill="#1C3343"/>
<path d="M1.51489 77.7109L1.06536 77.7109C0.817088 77.7109 0.615825 77.5102 0.615825 77.2626L0.615827 59.6282C0.615827 59.3806 0.81709 59.1799 1.06536 59.1799L1.51489 59.1799L1.51489 77.7109Z" fill="#213744"/>
<path d="M1.51489 50.2134L1.06536 50.2134C0.817089 50.2134 0.615826 50.0127 0.615826 49.765L0.615827 41.0973C0.615827 40.8497 0.81709 40.649 1.06536 40.649L1.51489 40.649L1.51489 50.2134Z" fill="#213744"/>
<path d="M1.51514 27.1988C1.51514 19.9667 1.51514 16.3507 2.46854 13.4242C4.39544 7.50969 9.04494 2.87261 14.9753 0.95086C17.9096 0 21.5353 0 28.7868 0H99.2136C106.465 0 110.091 0 113.025 0.95086C118.955 2.87261 123.605 7.50969 125.532 13.4242C126.485 16.3507 126.485 19.9667 126.485 27.1988V229.247C126.485 236.479 126.485 240.095 125.532 243.022C123.605 248.936 118.955 253.573 113.025 255.495C110.091 256.446 106.465 256.446 99.2136 256.446H28.7868C21.5353 256.446 17.9096 256.446 14.9753 255.495C9.04494 253.573 4.39544 248.936 2.46854 243.022C1.51514 240.095 1.51514 236.479 1.51514 229.247V27.1988Z" fill="#213744"/>
<path fill-rule="evenodd" clip-rule="evenodd" d="M99.3333 0.597716H28.6668C21.5036 0.597716 17.993 0.601404 15.1604 1.51932C9.4125 3.38194 4.90606 7.87634 3.03846 13.6089C2.11808 16.4339 2.11439 19.9351 2.11439 27.0792V229.367C2.11439 236.511 2.11808 240.012 3.03846 242.837C4.90606 248.569 9.4125 253.064 15.1604 254.926C17.993 255.844 21.5036 255.848 28.6668 255.848H99.3333C106.497 255.848 110.007 255.844 112.84 254.926C118.588 253.064 123.094 248.569 124.962 242.837C125.882 240.012 125.886 236.511 125.886 229.367V27.0792C125.886 19.9351 125.882 16.4339 124.962 13.6089C123.094 7.87634 118.588 3.38194 112.84 1.51932C110.007 0.601404 106.497 0.597716 99.3333 0.597716ZM2.75344 13.5165C1.8147 16.398 1.8147 19.9584 1.8147 27.0792V229.367C1.8147 236.487 1.8147 240.048 2.75344 242.929C4.65069 248.753 9.22866 253.319 15.0678 255.211C17.9569 256.147 21.5269 256.147 28.6668 256.147H99.3333C106.473 256.147 110.043 256.147 112.932 255.211C118.771 253.319 123.349 248.753 125.247 242.929C126.185 240.048 126.185 236.487 126.185 229.367V27.0792C126.185 19.9584 126.185 16.398 125.247 13.5165C123.349 7.69298 118.771 3.12724 112.932 1.23506C110.043 0.298828 106.473 0.298828 99.3333 0.298828H28.6668C21.5269 0.298828 17.9569 0.298828 15.0678 1.23506C9.22866 3.12724 4.65069 7.69298 2.75344 13.5165Z" fill="#8EADC1"/>
<path d="M3.01367 26.6012C3.01367 19.9254 3.01367 16.5876 3.89374 13.8862C5.67241 8.42665 9.96426 4.14627 15.4385 2.37235C18.147 1.49463 21.4939 1.49463 28.1875 1.49463H99.8131C106.507 1.49463 109.854 1.49463 112.562 2.37235C118.036 4.14627 122.328 8.42665 124.107 13.8862C124.987 16.5876 124.987 19.9254 124.987 26.6012V229.845C124.987 236.521 124.987 239.859 124.107 242.56C122.328 248.02 118.036 252.3 112.562 254.074C109.854 254.952 106.507 254.952 99.8131 254.952H28.1875C21.4939 254.952 18.147 254.952 15.4385 254.074C9.96426 252.3 5.67241 248.02 3.89374 242.56C3.01367 239.859 3.01367 236.521 3.01367 229.845V26.6012Z" fill="#121515"/>
<rect x="99.8127" width="1.79813" height="1.49444" fill="#36454C"/>
<rect x="124.987" y="25.7041" width="1.49844" height="1.79333" fill="#36454C"/>
<rect x="1.51514" y="25.7041" width="1.49844" height="1.79333" fill="#36454C"/>
<rect x="1.51514" y="228.948" width="1.49844" height="1.79333" fill="#36454C"/>
<rect x="124.987" y="228.948" width="1.49844" height="1.79333" fill="#36454C"/>
<rect x="26.3892" y="254.951" width="1.79813" height="1.49444" fill="#36454C"/>
<path fill-rule="evenodd" clip-rule="evenodd" d="M76.7366 11.9555C78.0607 11.9555 79.1341 10.885 79.1341 9.56444C79.1341 8.24387 78.0607 7.17334 76.7366 7.17334C75.4125 7.17334 74.3391 8.24387 74.3391 9.56444C74.3391 10.885 75.4125 11.9555 76.7366 11.9555Z" fill="#262C2D"/>
<path fill-rule="evenodd" clip-rule="evenodd" d="M76.7367 11.0587C77.5643 11.0587 78.2352 10.3896 78.2352 9.56426C78.2352 8.73891 77.5643 8.06982 76.7367 8.06982C75.9092 8.06982 75.2383 8.73891 75.2383 9.56426C75.2383 10.3896 75.9092 11.0587 76.7367 11.0587Z" fill="#121515"/>
<path opacity="0.4" fill-rule="evenodd" clip-rule="evenodd" d="M76.7367 9.26574C76.9022 9.26574 77.0364 9.13193 77.0364 8.96686C77.0364 8.80179 76.9022 8.66797 76.7367 8.66797C76.5712 8.66797 76.437 8.80179 76.437 8.96686C76.437 9.13193 76.5712 9.26574 76.7367 9.26574Z" fill="#636F73"/>
<path fill-rule="evenodd" clip-rule="evenodd" d="M56.6577 9.56463C56.6577 9.06942 57.0592 8.66797 57.5544 8.66797H70.4458C70.941 8.66797 71.3425 9.06942 71.3425 9.56463V9.56463C71.3425 10.0598 70.941 10.4613 70.4458 10.4613H57.5544C57.0592 10.4613 56.6577 10.0598 56.6577 9.56463V9.56463Z" fill="#262C2D"/>
</g>
<mask id="mask0_2459_52909" style="mask-type:alpha" maskUnits="userSpaceOnUse" x="6" y="7" width="115" height="246">
<path d="M32.9233 10.0548V8.70981C32.9233 7.80192 32.1854 7.06593 31.2751 7.06593L27.415 7.06592C21.3805 7.06592 18.3633 7.06592 15.9569 7.97278C12.1746 9.39818 9.18885 12.3759 7.75964 16.1481C6.85034 18.5481 6.85034 21.5573 6.85034 27.5756V231.644C6.85034 237.663 6.85034 240.672 7.75964 243.072C9.18885 246.844 12.1746 249.822 15.9569 251.247C18.3633 252.154 21.3805 252.154 27.415 252.154H99.8677C105.902 252.154 108.919 252.154 111.326 251.247C115.108 249.822 118.094 246.844 119.523 243.072C120.432 240.672 120.432 237.663 120.432 231.644V27.5756C120.432 21.5573 120.432 18.5481 119.523 16.1481C118.094 12.3759 115.108 9.39818 111.326 7.97278C108.919 7.06592 105.902 7.06592 99.8677 7.06592L96.0076 7.06593C95.0972 7.06593 94.3593 7.80192 94.3593 8.70981V10.0548L94.3379 10.0541L94.3594 10.2042C94.3594 13.7533 91.4746 16.6303 87.9161 16.6303H39.3665C35.808 16.6303 32.9232 13.7533 32.9232 10.2042L32.9447 10.0541L32.9233 10.0548Z" fill="#C4C4C4"/>
</mask>
<g mask="url(#mask0_2459_52909)">
<g clip-path="url(#clip2_2459_52909)">
<rect width="113.176" height="244.924" transform="translate(7.41211 7.23389)" fill="white"/>
<rect width="115" height="248" transform="translate(7 7)" fill="url(#paint0_linear_2459_52909)"/>
<g style="mix-blend-mode:color-dodge" opacity="0.25">
<path d="M104.739 160.484C131.953 166.94 161.349 202.157 161.349 202.157L139.189 130.995C139.189 130.995 121.473 125.944 103.501 137.582C82.9378 150.897 65.2126 135.396 53.7482 130.16C36.5826 122.321 33.4705 144.039 14.3515 145.888C-8.43578 148.092 -27.2217 121.673 -27.2217 121.673L-6.7527 200.582C-6.7527 200.582 25.7605 143.236 42.1203 160.181C85.6169 205.232 82.4175 155.189 104.739 160.484Z" fill="#6B2824" fill-opacity="0.3"/>
</g>
<g style="mix-blend-mode:luminosity" opacity="0.25">
<path d="M18.5011 100.978C-5.55915 110.139 -28.1672 148.069 -28.1672 148.069L-16.4653 75.1943C-16.4653 75.1943 -0.90412 68.388 16.8888 78.1203C37.2469 89.2556 51.5655 72.0766 61.4 65.7196C76.1252 56.2014 81.5649 77.4434 99.2324 77.3437C120.29 77.2249 134.269 49.1022 134.269 49.1022L125.038 129.495C125.038 129.495 88.5042 75.8656 75.6044 94.3398C41.307 143.458 38.2355 93.4633 18.5011 100.978Z" fill="#727DE6"/>
</g>
<path opacity="0.2" fill-rule="evenodd" clip-rule="evenodd" d="M-25.2227 161.615L-32.1563 155.99L-32.1659 156.002C-34.2761 154.29 -37.3965 154.62 -39.1038 156.724C-40.8158 158.835 -40.4853 161.955 -38.381 163.662L28.8348 218.195C25.8139 220.063 24.1678 223.709 25.0117 227.366C25.4858 229.42 26.6679 231.124 28.2345 232.293L17.1168 234.859C14.4765 235.468 12.8089 238.126 13.4199 240.774C14.0292 243.414 16.6873 245.082 19.3351 244.471L51.9454 236.945L76.392 256.779C78.5022 258.491 81.6226 258.161 83.3298 256.056C85.0419 253.946 84.7114 250.826 82.6071 249.118L73.7466 241.93C75.6678 241.567 77.4781 240.556 78.8064 238.919C80.8093 236.45 81.2038 233.203 80.1266 230.442L163.346 211.237C165.986 210.628 167.654 207.97 167.043 205.322C166.433 202.682 163.775 201.014 161.128 201.625L161.124 201.61L152.424 203.618C153.84 201.424 154.396 198.687 153.764 195.95C152.523 190.573 147.154 187.211 141.777 188.452C140.063 188.847 138.562 189.654 137.348 190.755C135.615 187.069 131.497 184.965 127.373 185.917C126.683 186.076 126.034 186.312 125.433 186.615C122.717 179.789 115.354 175.778 107.975 177.481C101.129 179.061 96.4445 185.063 96.2505 191.771C94.5503 190.937 92.5724 190.659 90.5847 191.118C87.6921 191.785 85.4888 193.848 84.5224 196.431C81.1124 193.976 76.696 192.948 72.283 193.967C66.4311 195.317 62.1655 199.892 60.9237 205.382C59.4565 204.389 57.8239 203.784 56.1616 203.56C57.5345 198.039 55.7228 191.972 51.0118 188.15C47.4948 185.296 43.076 184.279 38.9342 184.987C39.2003 182.242 38.1272 179.421 35.8219 177.551C34.2377 176.266 32.3388 175.646 30.445 175.649C33.2176 169.537 31.646 162.087 26.1902 157.661C20.3088 152.889 11.9326 153.258 6.49453 158.197C6.0869 157.661 5.60767 157.164 5.05795 156.718C1.77146 154.052 -2.85223 154.133 -6.02829 156.683C-6.63601 155.16 -7.62983 153.776 -8.99526 152.668C-13.2807 149.191 -19.581 149.853 -23.0578 154.138C-24.8274 156.319 -25.5307 159.023 -25.2227 161.615Z" fill="url(#paint1_linear_2459_52909)"/>
<path opacity="0.2" fill-rule="evenodd" clip-rule="evenodd" d="M16.7269 94.0018C16.1423 94.0018 15.6684 94.4757 15.6684 95.0603C15.6684 95.6449 16.1423 96.1187 16.7269 96.1187C17.3115 96.1187 17.7853 95.6449 17.7853 95.0603C17.7853 94.4757 17.3115 94.0018 16.7269 94.0018ZM20.9426 94.0018C20.3278 94.0018 19.8294 94.5002 19.8294 95.115C19.8294 95.7298 20.3278 96.2282 20.9426 96.2282H26.0159C26.6307 96.2282 27.1291 95.7298 27.1291 95.115C27.1291 94.5002 26.6307 94.0018 26.0159 94.0018H20.9426ZM22.9682 108.419C22.9682 107.834 23.4421 107.36 24.0267 107.36C24.6113 107.36 25.0851 107.834 25.0851 108.419C25.0851 109.003 24.6113 109.477 24.0267 109.477C23.4421 109.477 22.9682 109.003 22.9682 108.419ZM27.4942 107.36C26.9096 107.36 26.4357 107.834 26.4357 108.419C26.4357 109.003 26.9096 109.477 27.4942 109.477C28.0787 109.477 28.5526 109.003 28.5526 108.419C28.5526 107.834 28.0787 107.36 27.4942 107.36ZM12.0552 95.0604C12.0552 94.4758 12.5291 94.002 13.1136 94.002C13.6982 94.002 14.1721 94.4758 14.1721 95.0604C14.1721 95.645 13.6982 96.1189 13.1136 96.1189C12.5291 96.1189 12.0552 95.645 12.0552 95.0604ZM20.9426 100.681H16.7816C16.1668 100.681 15.6684 100.183 15.6684 99.5679C15.6684 98.9531 16.1668 98.4547 16.7816 98.4547H20.9426H21.1249C21.7314 98.445 22.22 97.9504 22.22 97.3416C22.22 96.7268 21.7216 96.2284 21.1068 96.2284H24.5012L24.5155 96.2285C23.9108 96.2402 23.4242 96.734 23.4242 97.3415C23.4242 97.9515 23.9149 98.4469 24.5232 98.4546L24.5161 98.4547H26.0159C26.6307 98.4547 27.1291 98.9531 27.1291 99.5679C27.1291 100.183 26.6307 100.681 26.0159 100.681H21.8549H20.9426ZM19.4096 105.134H23.5705H24.4829H28.6439C29.2587 105.134 29.7571 104.636 29.7571 104.021C29.7571 103.406 29.2587 102.908 28.6439 102.908H25.7187C25.1146 102.895 24.6288 102.402 24.6288 101.795C24.6288 101.185 25.1191 100.69 25.7269 100.681L25.7057 100.681H22.3842H22.3113H18.9899C19.6047 100.681 20.1031 101.18 20.1031 101.794C20.1031 102.409 19.6047 102.908 18.9899 102.908H19.3916C18.7851 102.917 18.2964 103.412 18.2964 104.021C18.2964 104.636 18.7948 105.134 19.4096 105.134ZM22.367 100.683C22.9559 100.712 23.4245 101.198 23.4245 101.794C23.4245 102.391 22.9549 102.878 22.365 102.906C21.776 102.877 21.3075 102.391 21.3075 101.795C21.3075 101.198 21.7771 100.711 22.367 100.683Z" fill="#FFFFF4"/>
<g style="mix-blend-mode:lighten" opacity="0.1">
<path d="M48.4283 116.614C19.1254 136.231 9.647 153.167 9.647 153.167L20.0516 172.805C57.9472 146.808 133.24 180.742 133.24 180.742L140.984 109.722C140.984 109.722 75.747 98.3241 48.4283 116.614Z" fill="url(#paint2_linear_2459_52909)"/>
</g>
<path d="M35.5259 152.559C36.3195 151.881 37.512 151.975 38.1894 152.769V152.769C38.8668 153.563 38.7725 154.755 37.9789 155.433L20.4067 170.43C19.6131 171.108 18.4206 171.013 17.7432 170.22V170.22C17.0659 169.426 17.1601 168.234 17.9538 167.556L35.5259 152.559Z" fill="url(#paint3_linear_2459_52909)"/>
<path d="M35.4309 142.704C36.2245 142.027 37.417 142.121 38.0944 142.915V142.915C38.7718 143.708 38.6775 144.901 37.8839 145.578L20.3118 160.576C19.5181 161.253 18.3256 161.159 17.6483 160.365V160.365C16.9709 159.572 17.0651 158.379 17.8588 157.702L35.4309 142.704Z" fill="url(#paint4_linear_2459_52909)"/>
<path d="M21.9185 144.302C22.7121 143.624 23.9046 143.719 24.582 144.512V144.512C25.2593 145.306 25.1651 146.498 24.3714 147.176L6.79931 162.174C6.00567 162.851 4.81318 162.757 4.13581 161.963V161.963C3.45844 161.169 3.55269 159.977 4.34633 159.3L21.9185 144.302Z" fill="url(#paint5_linear_2459_52909)"/>
<path fill-rule="evenodd" clip-rule="evenodd" d="M31.7379 153.308C31.0605 152.514 29.868 152.42 29.0744 153.097L13.5641 166.335L13.5639 166.335L24.1618 157.29L24.181 157.273L23.0059 158.276C22.2123 158.953 21.0198 158.859 20.3424 158.065C19.6718 157.28 19.7575 156.103 20.5293 155.422L23.8098 152.623C24.6034 151.945 24.6977 150.753 24.0203 149.959C23.3429 149.165 22.1504 149.071 21.3568 149.749L14.1903 155.865C13.3968 156.517 12.2245 156.415 11.5551 155.631C10.8777 154.837 10.972 153.645 11.7656 152.967L12.6172 152.241L12.6092 152.247L6.20528 157.713L6.20503 157.713L14.5616 150.58C15.3553 149.903 15.4495 148.711 14.7722 147.917C14.0948 147.123 12.9023 147.029 12.1087 147.706L1.69035 156.599C1.68317 156.605 1.67605 156.611 1.66899 156.617L0.893788 157.279C-4.66168 162.02 -5.32146 170.368 -0.579862 175.923C4.16174 181.479 12.5092 182.138 18.0646 177.397L20.923 174.957L20.9229 174.957L29.2794 167.825C30.073 167.147 30.1673 165.955 29.4899 165.161C28.8125 164.368 27.62 164.273 26.8264 164.951L18.4699 172.083L18.4698 172.083L25.2718 166.277C24.4782 166.947 23.2915 166.851 22.6164 166.06C21.9467 165.275 22.0313 164.101 22.8003 163.42L31.5273 155.971C32.321 155.294 32.4152 154.101 31.7379 153.308Z" fill="url(#paint6_linear_2459_52909)"/>
<circle cx="7.87137" cy="168.696" r="6.51997" transform="rotate(49.5192 7.87137 168.696)" fill="#FFFFF4"/>
<path fill-rule="evenodd" clip-rule="evenodd" d="M23.7324 176.731C23.9128 176.942 24.2303 176.967 24.4417 176.787C24.653 176.606 24.6781 176.289 24.4978 176.078C24.3174 175.866 23.9998 175.841 23.7885 176.021C23.5771 176.202 23.552 176.519 23.7324 176.731ZM23.8711 176.612C23.9861 176.747 24.1886 176.763 24.3233 176.648C24.458 176.533 24.474 176.331 24.359 176.196C24.244 176.061 24.0416 176.045 23.9069 176.16C23.7721 176.275 23.7561 176.478 23.8711 176.612Z" fill="#FFFFF4"/>
<path fill-rule="evenodd" clip-rule="evenodd" d="M29.3596 174.088C29.54 174.299 29.8575 174.324 30.0689 174.144C30.2802 173.963 30.3053 173.646 30.125 173.434C29.9446 173.223 29.627 173.198 29.4157 173.378C29.2043 173.559 29.1792 173.876 29.3596 174.088ZM29.4983 173.969C29.6133 174.104 29.8158 174.12 29.9505 174.005C30.0852 173.89 30.1012 173.688 29.9862 173.553C29.8712 173.418 29.6688 173.402 29.5341 173.517C29.3993 173.632 29.3833 173.835 29.4983 173.969Z" fill="#FFFFF4"/>
<path fill-rule="evenodd" clip-rule="evenodd" d="M27.5121 173.504C27.4283 173.406 27.2807 173.394 27.1825 173.478L26.6713 173.914L26.2349 173.403C26.1511 173.305 26.0035 173.293 25.9053 173.377C25.8071 173.461 25.7955 173.608 25.8793 173.707L26.3156 174.218L25.8044 174.654C25.7062 174.738 25.6945 174.886 25.7783 174.984C25.8621 175.082 26.0097 175.094 26.1079 175.01L26.6192 174.574L27.0555 175.085C27.1393 175.183 27.2869 175.195 27.3851 175.111C27.4833 175.027 27.495 174.879 27.4112 174.781L26.9748 174.27L27.4861 173.834C27.5843 173.75 27.5959 173.602 27.5121 173.504Z" fill="#FFFFF4"/>
<path fill-rule="evenodd" clip-rule="evenodd" d="M13.8451 141.14C13.7224 141.1 13.5903 141.166 13.5499 141.289L13.3399 141.927L12.7014 141.717C12.5787 141.677 12.4466 141.744 12.4062 141.866C12.3659 141.989 12.4326 142.121 12.5553 142.161L13.1937 142.372L12.9837 143.01C12.9433 143.133 13.01 143.265 13.1327 143.305C13.2553 143.345 13.3875 143.279 13.4278 143.156L13.6379 142.518L14.2763 142.728C14.399 142.768 14.5311 142.701 14.5715 142.579C14.6118 142.456 14.5451 142.324 14.4225 142.284L13.784 142.074L13.9941 141.435C14.0344 141.312 13.9677 141.18 13.8451 141.14Z" fill="#FFFFF4"/>
<path fill-rule="evenodd" clip-rule="evenodd" d="M12.3983 144.666C12.3758 144.593 12.2982 144.552 12.2248 144.574L11.8428 144.691L11.726 144.309C11.7036 144.235 11.6259 144.194 11.5525 144.217C11.4792 144.239 11.4379 144.317 11.4603 144.39L11.5771 144.772L11.1952 144.889C11.1218 144.911 11.0805 144.989 11.103 145.062C11.1254 145.136 11.2031 145.177 11.2765 145.155L11.6584 145.038L11.7752 145.42C11.7976 145.493 11.8753 145.534 11.9487 145.512C12.0221 145.489 12.0633 145.412 12.0409 145.338L11.9241 144.956L12.3061 144.84C12.3794 144.817 12.4207 144.74 12.3983 144.666Z" fill="#FFFFF4"/>
<path fill-rule="evenodd" clip-rule="evenodd" d="M-5.67242 204.401L-8.17189 202.305C-9.6274 201.084 -11.8144 201.276 -13.0349 202.731C-14.2555 204.187 -14.0635 206.374 -12.608 207.594L6.5593 223.669C6.37749 224.07 6.23628 224.493 6.14095 224.933C5.11337 224.362 3.93356 224.043 2.67764 224.043C-1.27282 224.043 -4.47734 227.247 -4.47734 231.197C-4.47734 233.207 -3.64766 235.026 -2.30801 236.328H-8.70181V236.351C-10.6428 236.351 -12.2336 237.941 -12.2336 239.882C-12.2336 241.823 -10.6428 243.414 -8.70181 243.414H-3.42813C-2.02098 243.606 -1.30327 244.683 -1.30327 245.972C-1.30327 247.395 -2.46786 248.56 -3.89124 248.56H-8.54958C-11.2593 248.56 -13.4819 250.775 -13.4819 253.492C-13.4819 256.202 -11.2669 258.424 -8.54958 258.424H7.41204V275.374H120.588V255.06H162.008C164.446 255.06 166.439 253.068 166.439 250.63C166.439 248.191 164.446 246.199 162.008 246.199H157.82C156.542 246.199 155.5 245.156 155.5 243.879C155.5 242.861 156.004 241.987 156.988 241.676H157.862C159.292 241.676 160.452 240.507 160.452 239.086C160.452 237.657 159.283 236.497 157.862 236.497H155.651C156.593 234.916 157.131 233.067 157.131 231.1C157.131 225.257 152.389 220.515 146.545 220.515C144.863 220.515 143.274 220.91 141.861 221.608C140.953 212.368 133.159 205.147 123.683 205.147C115.526 205.147 108.615 210.494 106.269 217.867C105.327 217.118 104.133 216.673 102.838 216.673C99.9962 216.673 97.6587 218.825 97.356 221.583C95.9518 220.893 94.3795 220.515 92.7146 220.515C88.5644 220.515 84.9698 222.906 83.2349 226.386C82.1602 226.572 81.1811 227.041 80.3776 227.711C80.3852 227.628 80.3852 227.544 80.3852 227.46C80.3852 225.382 78.703 223.7 76.625 223.7C75.0418 223.7 73.6869 224.674 73.1313 226.06C71.784 223.517 69.1047 221.789 66.0296 221.789C64.4996 221.789 63.0686 222.216 61.8508 222.954C60.1229 219.27 56.378 216.712 52.0393 216.712C48.8073 216.712 45.9139 218.128 43.9282 220.366C43.9011 220.355 43.874 220.344 43.8469 220.333C43.6169 219.997 43.3546 219.685 43.0647 219.402C43.8625 217.684 43.4502 215.576 41.9282 214.3C41.1553 213.652 40.2195 213.32 39.2828 213.295C41.5736 207.72 40.1248 201.068 35.2564 196.985C29.5999 192.241 21.332 192.65 16.1644 197.711C15.6706 196.587 14.9198 195.556 13.916 194.714C10.4278 191.788 5.22329 192.245 2.29817 195.733C1.3133 196.907 0.708579 198.281 0.47945 199.696L-0.840547 198.589C-1.68876 197.877 -2.96722 197.985 -3.68271 198.838C-4.394 199.686 -4.2864 200.964 -3.43317 201.68L-2.9112 202.118C-2.4797 202.796 -2.61628 203.57 -3.12555 204.178C-3.76529 204.94 -4.90954 205.041 -5.67242 204.401ZM7.41204 243.384H-3.89124C-3.72938 243.384 -3.575 243.394 -3.42813 243.414H7.41204V243.384Z" fill="url(#paint7_linear_2459_52909)"/>
<g opacity="0.2">
<circle cx="64" cy="185.993" r="3.19214" fill="#FFFFF4"/>
</g>
<g opacity="0.2">
<circle cx="49.3452" cy="166.696" r="1.30588" fill="#FFFFF4"/>
</g>
<circle cx="59.5019" cy="52.0686" r="1.30588" fill="#FFFFF4"/>
<circle cx="31.9336" cy="75.865" r="1.30588" fill="#FFFFF4"/>
<circle cx="27.2904" cy="125.488" r="0.725487" fill="#FFFFF4"/>
<path fill-rule="evenodd" clip-rule="evenodd" d="M32.2236 132.598C32.9448 132.598 33.5295 132.013 33.5295 131.292C33.5295 130.571 32.9448 129.986 32.2236 129.986C31.5024 129.986 30.9177 130.571 30.9177 131.292C30.9177 132.013 31.5024 132.598 32.2236 132.598ZM32.2236 132.124C32.6834 132.124 33.0561 131.752 33.0561 131.292C33.0561 130.832 32.6834 130.459 32.2236 130.459C31.7638 130.459 31.3911 130.832 31.3911 131.292C31.3911 131.752 31.7638 132.124 32.2236 132.124Z" fill="#FFFFF4"/>
<path fill-rule="evenodd" clip-rule="evenodd" d="M26.8551 80.9431C27.4962 80.9431 28.0159 80.4234 28.0159 79.7824C28.0159 79.1413 27.4962 78.6216 26.8551 78.6216C26.214 78.6216 25.6943 79.1413 25.6943 79.7824C25.6943 80.4234 26.214 80.9431 26.8551 80.9431ZM26.8551 80.5224C27.2638 80.5224 27.5951 80.1911 27.5951 79.7824C27.5951 79.3737 27.2638 79.0424 26.8551 79.0424C26.4464 79.0424 26.1151 79.3737 26.1151 79.7824C26.1151 80.1911 26.4464 80.5224 26.8551 80.5224Z" fill="#FFFFF4"/>
<circle cx="70.2392" cy="36.1078" r="0.725487" fill="#FFFFF4"/>
<circle cx="84.7489" cy="54.1" r="0.725487" fill="#FFFFF4"/>
<g opacity="0.2">
<path fill-rule="evenodd" clip-rule="evenodd" d="M34.9527 169.723C34.8486 169.828 34.8493 169.998 34.9544 170.102L35.5014 170.644L34.9592 171.191C34.8551 171.296 34.8558 171.466 34.9609 171.57C35.066 171.674 35.2356 171.674 35.3397 171.568L35.8819 171.022L36.4289 171.564C36.534 171.668 36.7036 171.667 36.8077 171.562C36.9119 171.457 36.9111 171.287 36.806 171.183L36.259 170.641L36.8012 170.094C36.9053 169.989 36.9046 169.819 36.7995 169.715C36.6944 169.611 36.5248 169.612 36.4207 169.717L35.8785 170.264L35.3316 169.722C35.2265 169.618 35.0569 169.618 34.9527 169.723Z" fill="#FFFFF4"/>
</g>
<g opacity="0.2">
<path fill-rule="evenodd" clip-rule="evenodd" d="M56.6123 185.709C56.4695 185.671 56.3224 185.755 56.2836 185.898L56.0818 186.641L55.3386 186.439C55.1958 186.4 55.0486 186.485 55.0099 186.627C54.9711 186.77 55.0554 186.917 55.1982 186.956L55.9414 187.158L55.7397 187.901C55.7009 188.044 55.7852 188.191 55.928 188.23C56.0708 188.269 56.2179 188.184 56.2567 188.042L56.4585 187.298L57.2017 187.5C57.3445 187.539 57.4916 187.454 57.5304 187.312C57.5692 187.169 57.4848 187.022 57.3421 186.983L56.5988 186.781L56.8006 186.038C56.8394 185.895 56.7551 185.748 56.6123 185.709Z" fill="#FFFFF4"/>
</g>
<g opacity="0.2">
<path fill-rule="evenodd" clip-rule="evenodd" d="M42.9609 153.492C43.6821 153.492 44.2668 152.907 44.2668 152.186C44.2668 151.465 43.6821 150.88 42.9609 150.88C42.2397 150.88 41.655 151.465 41.655 152.186C41.655 152.907 42.2397 153.492 42.9609 153.492ZM42.9609 153.019C43.4207 153.019 43.7934 152.646 43.7934 152.186C43.7934 151.727 43.4207 151.354 42.9609 151.354C42.5011 151.354 42.1284 151.727 42.1284 152.186C42.1284 152.646 42.5011 153.019 42.9609 153.019Z" fill="#FFFFF4"/>
</g>
<g opacity="0.2">
<path fill-rule="evenodd" clip-rule="evenodd" d="M76.3332 135.209C77.0544 135.209 77.6391 134.625 77.6391 133.904C77.6391 133.182 77.0544 132.598 76.3332 132.598C75.612 132.598 75.0273 133.182 75.0273 133.904C75.0273 134.625 75.612 135.209 76.3332 135.209ZM76.3332 134.736C76.793 134.736 77.1657 134.363 77.1657 133.904C77.1657 133.444 76.793 133.071 76.3332 133.071C75.8734 133.071 75.5007 133.444 75.5007 133.904C75.5007 134.363 75.8734 134.736 76.3332 134.736Z" fill="#FFFFF4"/>
</g>
<ellipse cx="110.187" cy="69.2013" rx="21.1536" ry="4.9674" transform="rotate(-142.728 110.187 69.2013)" fill="url(#paint8_linear_2459_52909)"/>
<circle cx="111.278" cy="67.8598" r="15.9869" transform="rotate(-111.168 111.278 67.8598)" fill="url(#paint9_linear_2459_52909)"/>
<ellipse cx="7.42181" cy="13.8015" rx="39.5323" ry="39.0644" transform="rotate(124.112 7.42181 13.8015)" fill="url(#paint10_linear_2459_52909)"/>
<ellipse opacity="0.2" cx="7.42173" cy="13.8015" rx="47.0696" ry="46.5126" transform="rotate(124.112 7.42173 13.8015)" fill="url(#paint11_linear_2459_52909)"/>
<ellipse opacity="0.2" cx="7.42186" cy="13.8012" rx="54.9334" ry="54.2833" transform="rotate(124.112 7.42186 13.8012)" fill="url(#paint12_linear_2459_52909)"/>
<path d="M27.3413 115.339V113.476H28.6884V107.406H27.3413V105.543H31.7487C33.0681 105.543 34.0771 105.776 34.7756 106.241C35.4741 106.696 35.8234 107.35 35.8234 108.204C35.8234 108.703 35.707 109.135 35.4741 109.501C35.2524 109.867 34.9308 110.155 34.5095 110.366C35.0306 110.51 35.4298 110.776 35.707 111.164C35.9842 111.552 36.1228 112.046 36.1228 112.645C36.1228 113.509 35.8345 114.175 35.2579 114.64C34.6925 115.106 33.8664 115.339 32.7798 115.339H27.3413ZM30.8339 113.476H32.3973C32.8851 113.476 33.2566 113.382 33.5116 113.193C33.7777 113.005 33.9108 112.728 33.9108 112.362C33.9108 112.007 33.7888 111.741 33.5449 111.563C33.3009 111.375 32.9517 111.281 32.4971 111.281H30.8339V113.476ZM30.8339 109.601H32.5137C32.8685 109.601 33.1346 109.507 33.312 109.318C33.5005 109.13 33.5948 108.864 33.5948 108.52C33.5948 107.777 33.0404 107.406 31.9316 107.406H30.8339V109.601ZM39.1904 119.48C38.9465 119.48 38.6914 119.447 38.4253 119.38C38.1592 119.325 37.882 119.236 37.5938 119.114L37.9929 117.468C38.2147 117.556 38.4087 117.623 38.575 117.667C38.7524 117.712 38.9465 117.734 39.1571 117.734C39.4122 117.734 39.6284 117.662 39.8058 117.518C39.9832 117.385 40.1606 117.152 40.338 116.819C40.5154 116.486 40.7205 116.037 40.9534 115.472L43.4647 109.468H42.6331L42.7329 107.788H46.8576V109.468H45.5437L42.367 116.52C41.8903 117.584 41.4024 118.344 40.9035 118.798C40.4156 119.253 39.8446 119.48 39.1904 119.48ZM41.3026 116.42L38.0428 109.468H36.8121V107.788H41.0864V109.468H40.1883L42.3005 114.557L41.3026 116.42ZM54.5071 114.407C53.997 114.84 53.4648 115.156 52.9104 115.355C52.3671 115.566 51.8294 115.671 51.2972 115.671C50.4323 115.671 49.6784 115.5 49.0353 115.156C48.3922 114.801 47.8932 114.319 47.5384 113.709C47.1947 113.088 47.0229 112.384 47.0229 111.597C47.0229 110.765 47.1892 110.039 47.5218 109.418C47.8544 108.797 48.3146 108.315 48.9022 107.971C49.4899 107.627 50.1718 107.455 50.9479 107.455C51.7573 107.455 52.4559 107.616 53.0435 107.938C53.6422 108.259 54.1024 108.708 54.4239 109.285C54.7566 109.85 54.9229 110.521 54.9229 111.297C54.9229 111.442 54.9118 111.608 54.8896 111.796C54.8785 111.985 54.8564 112.162 54.8231 112.329H49.0353C49.0796 112.706 49.2071 113.022 49.4178 113.277C49.6285 113.532 49.8946 113.72 50.2161 113.842C50.5488 113.964 50.9091 114.025 51.2972 114.025C51.7629 114.025 52.2119 113.947 52.6443 113.792C53.0768 113.637 53.4704 113.421 53.8252 113.143L54.5071 114.407ZM52.8273 110.931C52.8273 110.41 52.6665 109.989 52.345 109.667C52.0234 109.335 51.5799 109.169 51.0144 109.169C50.5044 109.169 50.0609 109.335 49.6839 109.667C49.3069 109.989 49.1074 110.41 49.0852 110.931H52.8273ZM56.0742 110.798H61.6458V112.478H56.0742V110.798ZM62.9762 105.543H67.5L70.7931 112.312V107.406H69.5623V105.543H74.2026V107.406H72.6725V115.339H70.211L66.2028 107.389V113.476H67.5998V115.339H62.9596V113.476H64.34V107.406H62.9762V105.543ZM80.9724 115.056C80.1741 115.466 79.3758 115.671 78.5775 115.671C77.502 115.671 76.687 115.472 76.1326 115.073C75.5782 114.663 75.301 114.069 75.301 113.293C75.301 111.708 76.3544 110.915 78.461 110.915H80.2074C80.2074 110.272 80.0688 109.801 79.7916 109.501C79.5255 109.191 79.1928 109.035 78.7937 109.035C78.5497 109.035 78.3224 109.052 78.1118 109.085C77.9122 109.119 77.7126 109.169 77.513 109.235L77.3634 110.017L75.617 109.801L75.933 107.938C76.3876 107.783 76.8533 107.666 77.3301 107.589C77.818 107.5 78.3335 107.455 78.8768 107.455C79.9856 107.455 80.8338 107.749 81.4215 108.337C82.0202 108.914 82.3196 109.767 82.3196 110.898V113.609L83.6667 114.042L83.0846 115.771L80.9724 115.056ZM78.5109 112.229C78.1672 112.229 77.9011 112.323 77.7126 112.511C77.5352 112.689 77.4465 112.938 77.4465 113.26C77.4465 113.848 77.8457 114.141 78.644 114.141C79.1984 114.141 79.7195 113.997 80.2074 113.709V112.229H78.5109ZM87.1477 108.453C87.6356 108.132 88.0902 107.893 88.5115 107.738C88.9328 107.583 89.3486 107.505 89.7589 107.505C90.1802 107.505 90.6403 107.6 91.1393 107.788L91.422 109.967L89.6757 110.333L89.5094 109.435C89.1324 109.479 88.7942 109.557 88.4949 109.667C88.1955 109.767 87.9516 109.895 87.7631 110.05L87.7464 113.659H89.3763V115.339H84.2538V113.659H85.6508V109.85L84.0542 109.318L84.6031 107.622L87.1477 108.453ZM94.1527 119.48C93.9088 119.48 93.6538 119.447 93.3877 119.38C93.1216 119.325 92.8444 119.236 92.5561 119.114L92.9552 117.468C93.177 117.556 93.371 117.623 93.5374 117.667C93.7148 117.712 93.9088 117.734 94.1195 117.734C94.3745 117.734 94.5907 117.662 94.7681 117.518C94.9455 117.385 95.1229 117.152 95.3003 116.819C95.4777 116.486 95.6828 116.037 95.9157 115.472L98.4271 109.468H97.5955L97.6953 107.788H101.82V109.468H100.506L97.3294 116.52C96.8526 117.584 96.3647 118.344 95.8658 118.798C95.3779 119.253 94.8069 119.48 94.1527 119.48ZM96.2649 116.42L93.0051 109.468H91.7744V107.788H96.0487V109.468H95.1506L97.2628 114.557L96.2649 116.42Z" fill="#FFFFF4"/>
<path d="M49.7805 100.511C49.7805 92.6235 56.1132 86.2051 63.895 86.2051C71.6768 86.2051 78.0095 92.6235 78.0095 100.511" stroke="#FF527D" stroke-width="2.82372" stroke-miterlimit="10" stroke-linecap="round"/>
<path d="M54.7083 100.509C54.7083 95.3756 58.8294 91.1948 63.894 91.1948C68.9586 91.1948 73.0835 95.3718 73.0835 100.509" stroke="#FFAB37" stroke-width="2.82372" stroke-miterlimit="10" stroke-linecap="round"/>
<path d="M59.6367 100.514C59.6367 98.1308 61.5426 96.1953 63.8975 96.1953C66.2524 96.1953 68.1582 98.127 68.1582 100.514" stroke="#5A5995" stroke-width="2.82372" stroke-miterlimit="10" stroke-linecap="round"/>
<g clip-path="url(#clip3_2459_52909)">
<path d="M41.6372 6.94352H86.1623V11.2964C86.1623 14.021 83.9677 16.2298 81.2604 16.2298H46.5391C43.8318 16.2298 41.6372 14.021 41.6372 11.2964V6.94352Z" fill="black"/>
<path d="M41.704 6.94352L41.2715 6.65332C42.0358 6.65332 41.6462 7.56707 41.6462 8.33626C41.6462 8.35577 41.6458 8.37518 41.645 8.39449H41.704V6.94352Z" fill="black"/>
<path d="M86.1094 6.94352L86.5419 6.65332C85.7776 6.65332 86.1672 7.56707 86.1672 8.33626C86.1672 8.35577 86.1676 8.37518 86.1684 8.39449H86.1094V6.94352Z" fill="black"/>
<path d="M19.6485 13.0237C18.8945 13.0237 18.3574 13.5392 18.3574 14.245V14.2498C18.3574 14.9099 18.8247 15.3965 19.4919 15.3965C19.9689 15.3965 20.2724 15.1532 20.4001 14.8786H20.4482C20.4482 14.9051 20.4458 14.9315 20.4458 14.958C20.4193 15.6229 20.1857 16.1625 19.6341 16.1625C19.3281 16.1625 19.1137 16.0035 19.0222 15.7602L19.015 15.7361H18.4031L18.408 15.7626C18.5188 16.295 18.9957 16.6731 19.6341 16.6731C20.5085 16.6731 21.036 15.9794 21.036 14.8087V14.8039C21.036 13.5513 20.3904 13.0237 19.6485 13.0237ZM19.6461 14.9195C19.251 14.9195 18.9644 14.6304 18.9644 14.2282V14.2233C18.9644 13.8355 19.2703 13.5296 19.6533 13.5296C20.0387 13.5296 20.3398 13.8403 20.3398 14.2378V14.2426C20.3398 14.6353 20.0387 14.9195 19.6461 14.9195ZM22.0112 14.3342C22.2328 14.3342 22.3942 14.1655 22.3942 13.9536C22.3942 13.7392 22.2328 13.573 22.0112 13.573C21.792 13.573 21.6282 13.7392 21.6282 13.9536C21.6282 14.1655 21.792 14.3342 22.0112 14.3342ZM22.0112 16.1215C22.2328 16.1215 22.3942 15.9553 22.3942 15.7409C22.3942 15.5265 22.2328 15.3603 22.0112 15.3603C21.792 15.3603 21.6282 15.5265 21.6282 15.7409C21.6282 15.9553 21.792 16.1215 22.0112 16.1215ZM24.6726 16.5864H25.2676V15.9192H25.7349V15.4061H25.2676V13.1105H24.3884C23.9162 13.8283 23.4224 14.628 22.972 15.4109V15.9192H24.6726V16.5864ZM23.5501 15.4205V15.3844C23.8873 14.7942 24.2896 14.1511 24.6461 13.6067H24.6823V15.4205H23.5501ZM27.057 16.5864H27.6785V13.1105H27.0594L26.1513 13.7488V14.3342L27.0161 13.7223H27.057V16.5864Z" fill="#FFFFF4"/>
<path opacity="0.35" d="M109.156 13.3746H113.641C114.151 13.3746 114.564 13.7881 114.564 14.2981V15.6173C114.564 16.1274 114.151 16.5408 113.641 16.5408H109.156C108.645 16.5408 108.232 16.1274 108.232 15.6173V14.2981C108.232 13.7881 108.645 13.3746 109.156 13.3746Z" stroke="white" stroke-width="0.263852"/>
<path opacity="0.4" d="M114.96 14.562V15.6756C115.184 15.5812 115.33 15.3619 115.33 15.1188C115.33 14.8757 115.184 14.6563 114.96 14.562" fill="white"/>
<path d="M108.628 14.2982C108.628 14.0068 108.864 13.7705 109.155 13.7705H113.641C113.932 13.7705 114.169 14.0068 114.169 14.2982V15.6175C114.169 15.9089 113.932 16.1452 113.641 16.1452H109.155C108.864 16.1452 108.628 15.9089 108.628 15.6175V14.2982Z" fill="white"/>
<path fill-rule="evenodd" clip-rule="evenodd" d="M103.705 14.0362C104.355 14.0363 104.981 14.2915 105.453 14.7492C105.488 14.7846 105.545 14.7841 105.58 14.7482L105.92 14.3985C105.937 14.3803 105.947 14.3556 105.947 14.33C105.947 14.3043 105.937 14.2798 105.919 14.2618C104.681 13.0508 102.728 13.0508 101.49 14.2618C101.472 14.2798 101.462 14.3043 101.462 14.3299C101.462 14.3556 101.471 14.3803 101.489 14.3985L101.829 14.7482C101.864 14.7842 101.92 14.7846 101.956 14.7492C102.428 14.2915 103.054 14.0362 103.705 14.0362ZM103.714 15.0922C104.071 15.0922 104.416 15.2278 104.681 15.4728C104.717 15.5076 104.774 15.5068 104.808 15.4711L105.148 15.1214C105.165 15.103 105.175 15.0781 105.175 15.0523C105.175 15.0264 105.164 15.0017 105.146 14.9838C104.339 14.2174 103.089 14.2174 102.282 14.9838C102.264 15.0017 102.253 15.0264 102.253 15.0523C102.253 15.0782 102.263 15.103 102.281 15.1214L102.62 15.4711C102.655 15.5068 102.711 15.5076 102.747 15.4728C103.012 15.228 103.356 15.0923 103.714 15.0922ZM104.403 15.7748C104.404 15.8007 104.394 15.8257 104.376 15.8439L103.789 16.4482C103.772 16.466 103.748 16.4759 103.724 16.4759C103.7 16.4759 103.676 16.466 103.659 16.4482L103.072 15.8439C103.054 15.8257 103.044 15.8007 103.045 15.7748C103.045 15.7488 103.056 15.7243 103.075 15.7069C103.45 15.3835 103.998 15.3835 104.373 15.7069C104.392 15.7243 104.403 15.7489 104.403 15.7748Z" fill="white"/>
<path d="M97.2398 14.1451C97.2398 13.9993 97.358 13.8812 97.5037 13.8812H97.7675C97.9133 13.8812 98.0314 13.9993 98.0314 14.1451V16.2559C98.0314 16.4016 97.9133 16.5197 97.7675 16.5197H97.5037C97.358 16.5197 97.2398 16.4016 97.2398 16.2559V14.1451Z" fill="white"/>
<path d="M98.5591 13.6174C98.5591 13.4716 98.6772 13.3535 98.8229 13.3535H99.0868C99.2325 13.3535 99.3507 13.4716 99.3507 13.6174V16.2559C99.3507 16.4016 99.2325 16.5197 99.0868 16.5197H98.8229C98.6772 16.5197 98.5591 16.4016 98.5591 16.2559V13.6174Z" fill="white"/>
<path d="M95.9206 15.0686C95.9206 14.9228 96.0387 14.8047 96.1844 14.8047H96.4483C96.594 14.8047 96.7121 14.9228 96.7121 15.0686V16.2559C96.7121 16.4016 96.594 16.5197 96.4483 16.5197H96.1844C96.0387 16.5197 95.9206 16.4016 95.9206 16.2559V15.0686Z" fill="white"/>
<path d="M94.6013 15.7282C94.6013 15.5825 94.7194 15.4643 94.8652 15.4643H95.129C95.2747 15.4643 95.3929 15.5825 95.3929 15.7282V16.2559C95.3929 16.4016 95.2747 16.5197 95.129 16.5197H94.8652C94.7194 16.5197 94.6013 16.4016 94.6013 16.2559V15.7282Z" fill="white"/>
</g>
<g clip-path="url(#clip4_2459_52909)">
<path d="M41.6372 6.94352H86.1623V11.2964C86.1623 14.021 83.9677 16.2298 81.2604 16.2298H46.5391C43.8318 16.2298 41.6372 14.021 41.6372 11.2964V6.94352Z" fill="black"/>
<path d="M41.704 6.94352L41.2715 6.65332C42.0358 6.65332 41.6462 7.56707 41.6462 8.33626C41.6462 8.35577 41.6458 8.37518 41.645 8.39449H41.704V6.94352Z" fill="black"/>
<path d="M86.1094 6.94352L86.5419 6.65332C85.7776 6.65332 86.1672 7.56707 86.1672 8.33626C86.1672 8.35577 86.1676 8.37518 86.1684 8.39449H86.1094V6.94352Z" fill="black"/>
</g>
<path fill-rule="evenodd" clip-rule="evenodd" d="M12.0195 57.3074C11.7934 57.3584 11.6515 57.5831 11.7025 57.8092L11.9681 58.9862L10.7911 59.2518C10.565 59.3029 10.4231 59.5275 10.4741 59.7536C10.5252 59.9797 10.7498 60.1216 10.9759 60.0706L12.1529 59.805L12.4186 60.982C12.4697 61.2081 12.6943 61.35 12.9204 61.299C13.1465 61.248 13.2884 61.0233 13.2374 60.7972L12.9717 59.6202L14.1488 59.3545C14.3749 59.3035 14.5168 59.0788 14.4658 58.8527C14.4147 58.6266 14.1901 58.4847 13.964 58.5357L12.7869 58.8014L12.5213 57.6244C12.4703 57.3983 12.2456 57.2563 12.0195 57.3074Z" fill="#FFFFF4"/>
<path fill-rule="evenodd" clip-rule="evenodd" d="M92.078 26.6113C91.8592 26.5348 91.6199 26.6503 91.5434 26.8691L91.1455 28.0082L90.0063 27.6102C89.7875 27.5338 89.5482 27.6492 89.4717 27.868C89.3953 28.0869 89.5107 28.3262 89.7295 28.4027L90.8686 28.8006L90.4707 29.9397C90.3942 30.1586 90.5097 30.3979 90.7285 30.4744C90.9473 30.5508 91.1867 30.4354 91.2631 30.2166L91.6611 29.0775L92.8002 29.4754C93.019 29.5518 93.2584 29.4364 93.3348 29.2176C93.4112 28.9988 93.2958 28.7594 93.077 28.683L91.9379 28.285L92.3358 27.1459C92.4123 26.9271 92.2969 26.6877 92.078 26.6113Z" fill="#FFFFF4"/>
<path fill-rule="evenodd" clip-rule="evenodd" d="M97.6926 26.7077C97.5893 26.7462 97.5367 26.8612 97.5751 26.9645L97.7754 27.5026L97.2374 27.7029C97.134 27.7414 97.0814 27.8564 97.1199 27.9597C97.1584 28.0631 97.2734 28.1157 97.3767 28.0772L97.9148 27.8769L98.1151 28.4149C98.1536 28.5182 98.2686 28.5708 98.3719 28.5324C98.4753 28.4939 98.5279 28.3789 98.4894 28.2755L98.2891 27.7375L98.8271 27.5372C98.9304 27.4987 98.983 27.3838 98.9445 27.2804C98.9061 27.1771 98.7911 27.1245 98.6877 27.1629L98.1497 27.3632L97.9494 26.8252C97.9109 26.7218 97.796 26.6692 97.6926 26.7077Z" fill="#FFFFF4"/>
<path fill-rule="evenodd" clip-rule="evenodd" d="M19.0072 70.4246C18.9267 70.3669 18.8147 70.3855 18.757 70.466L18.4568 70.885L18.0378 70.5848C17.9573 70.5271 17.8452 70.5456 17.7876 70.6261C17.7299 70.7066 17.7484 70.8186 17.8289 70.8763L18.248 71.1765L17.9478 71.5956C17.8901 71.6761 17.9086 71.7881 17.9891 71.8458C18.0696 71.9035 18.1816 71.8849 18.2393 71.8044L18.5395 71.3854L18.9586 71.6856C19.0391 71.7432 19.1511 71.7247 19.2087 71.6442C19.2664 71.5637 19.2479 71.4517 19.1674 71.394L18.7484 71.0938L19.0486 70.6748C19.1062 70.5943 19.0877 70.4823 19.0072 70.4246Z" fill="#FFFFF4"/>
<path fill-rule="evenodd" clip-rule="evenodd" d="M106.214 114.329C106.232 114.231 106.167 114.138 106.07 114.12L105.563 114.028L105.655 113.52C105.673 113.423 105.608 113.33 105.511 113.312C105.414 113.294 105.32 113.359 105.302 113.456L105.21 113.963L104.703 113.871C104.605 113.853 104.512 113.917 104.494 114.015C104.476 114.112 104.541 114.206 104.638 114.223L105.145 114.316L105.053 114.823C105.035 114.92 105.1 115.014 105.197 115.032C105.294 115.049 105.388 114.985 105.406 114.887L105.498 114.38L106.005 114.473C106.103 114.491 106.196 114.426 106.214 114.329Z" fill="#FFFFF4"/>
<path fill-rule="evenodd" clip-rule="evenodd" d="M98.3646 156.389C98.3169 156.225 98.1454 156.131 97.9815 156.179L97.1285 156.427L96.8804 155.574C96.8327 155.41 96.6612 155.316 96.4974 155.364C96.3335 155.411 96.2393 155.583 96.287 155.747L96.5351 156.6L95.682 156.848C95.5181 156.895 95.4239 157.067 95.4716 157.231C95.5193 157.395 95.6907 157.489 95.8546 157.441L96.7077 157.193L96.9558 158.046C97.0035 158.21 97.1749 158.304 97.3388 158.257C97.5027 158.209 97.5969 158.037 97.5492 157.874L97.3011 157.02L98.1541 156.772C98.318 156.725 98.4122 156.553 98.3646 156.389Z" fill="#FFFFF4"/>
<path fill-rule="evenodd" clip-rule="evenodd" d="M84.2775 164.823C84.3785 164.563 84.2498 164.271 83.99 164.17L82.6377 163.644L83.1634 162.292C83.2644 162.032 83.1357 161.739 82.8759 161.638C82.6161 161.537 82.3237 161.666 82.2227 161.926L81.697 163.278L80.3447 162.752C80.0849 162.651 79.7924 162.78 79.6914 163.04C79.5905 163.3 79.7192 163.592 79.979 163.693L81.3313 164.219L80.8056 165.571C80.7046 165.831 80.8333 166.123 81.0931 166.224C81.3528 166.325 81.6453 166.197 81.7463 165.937L82.272 164.585L83.6243 165.11C83.8841 165.211 84.1765 165.083 84.2775 164.823Z" fill="#FFFFF4"/>
<circle cx="50.7961" cy="208.484" r="1.30588" fill="#FFFFF4"/>
<circle cx="94.3254" cy="211.095" r="1.30588" fill="#FFFFF4"/>
<path fill-rule="evenodd" clip-rule="evenodd" d="M103.322 206.888C104.043 206.888 104.627 206.303 104.627 205.582C104.627 204.861 104.043 204.276 103.322 204.276C102.6 204.276 102.016 204.861 102.016 205.582C102.016 206.303 102.6 206.888 103.322 206.888ZM103.322 206.414C103.781 206.414 104.154 206.042 104.154 205.582C104.154 205.122 103.781 204.749 103.322 204.749C102.862 204.749 102.489 205.122 102.489 205.582C102.489 206.042 102.862 206.414 103.322 206.414Z" fill="#FFFFF4"/>
<path opacity="0.2" fill-rule="evenodd" clip-rule="evenodd" d="M121.749 156.001C121.749 155.417 121.275 154.943 120.69 154.943C120.106 154.943 119.632 155.417 119.632 156.001C119.632 156.586 120.106 157.06 120.69 157.06C121.275 157.06 121.749 156.586 121.749 156.001ZM117.077 154.943C117.662 154.943 118.136 155.417 118.136 156.001C118.136 156.586 117.662 157.06 117.077 157.06C116.492 157.06 116.019 156.586 116.019 156.001C116.019 155.417 116.492 154.943 117.077 154.943ZM112.861 154.943C113.476 154.943 113.975 155.441 113.975 156.056C113.975 156.671 113.476 157.169 112.861 157.169H112.679C112.073 157.179 111.584 157.674 111.584 158.282C111.584 158.891 112.073 159.386 112.679 159.396H112.861H117.022C117.637 159.396 118.136 159.894 118.136 160.509C118.136 161.124 117.637 161.622 117.022 161.622H112.861H111.949H107.788C107.173 161.622 106.675 161.124 106.675 160.509C106.675 159.894 107.173 159.396 107.788 159.396H109.289L109.279 159.395C109.888 159.388 110.38 158.893 110.38 158.282C110.38 157.676 109.895 157.183 109.293 157.169H107.788C107.173 157.169 106.675 156.671 106.675 156.056C106.675 155.441 107.173 154.943 107.788 154.943H112.861ZM110.836 169.36C110.836 168.775 110.362 168.302 109.777 168.302C109.193 168.302 108.719 168.775 108.719 169.36C108.719 169.945 109.193 170.418 109.777 170.418C110.362 170.418 110.836 169.945 110.836 169.36ZM106.31 168.302C106.894 168.302 107.368 168.775 107.368 169.36C107.368 169.945 106.894 170.418 106.31 170.418C105.725 170.418 105.251 169.945 105.251 169.36C105.251 168.775 105.725 168.302 106.31 168.302ZM114.394 166.075H110.233H109.321H105.16C104.545 166.075 104.047 165.576 104.047 164.962C104.047 164.347 104.545 163.848 105.16 163.848H108.084C108.688 163.837 109.175 163.343 109.175 162.735C109.175 162.126 108.686 161.631 108.078 161.622L108.098 161.622H111.42H111.493H114.814C114.199 161.622 113.701 162.121 113.701 162.735C113.701 163.35 114.199 163.849 114.814 163.849H114.412C115.019 163.858 115.508 164.353 115.508 164.962C115.508 165.576 115.009 166.075 114.394 166.075ZM111.437 161.623C110.848 161.652 110.38 162.139 110.38 162.735C110.38 163.332 110.849 163.819 111.439 163.847C112.028 163.818 112.496 163.332 112.496 162.735C112.496 162.139 112.027 161.652 111.437 161.623Z" fill="#FFFFF4"/>
</g>
</g>
</g>
<defs>
<linearGradient id="paint0_linear_2459_52909" x1="57.5" y1="0" x2="57.5" y2="248" gradientUnits="userSpaceOnUse">
<stop stop-color="#2D2BAA"/>
<stop offset="0.333333" stop-color="#BE4AB3"/>
<stop offset="1" stop-color="#FF5387"/>
</linearGradient>
<linearGradient id="paint1_linear_2459_52909" x1="59.9373" y1="172.645" x2="63.4196" y2="240.115" gradientUnits="userSpaceOnUse">
<stop stop-color="#FFFFF4"/>
<stop offset="1" stop-color="#FFFFF4" stop-opacity="0.5"/>
</linearGradient>
<linearGradient id="paint2_linear_2459_52909" x1="17.174" y1="161.985" x2="95.9853" y2="127.076" gradientUnits="userSpaceOnUse">
<stop stop-color="#FFD8E1"/>
<stop offset="1" stop-color="#FFD8E1" stop-opacity="0.4"/>
<stop offset="1" stop-color="white" stop-opacity="0.5"/>
</linearGradient>
<linearGradient id="paint3_linear_2459_52909" x1="38.1894" y1="152.769" x2="17.7432" y2="170.22" gradientUnits="userSpaceOnUse">
<stop stop-color="#FD8368"/>
<stop offset="0.166667" stop-color="#FF527D"/>
<stop offset="0.651042" stop-color="#A2287F"/>
</linearGradient>
<linearGradient id="paint4_linear_2459_52909" x1="38.0944" y1="142.915" x2="17.6483" y2="160.365" gradientUnits="userSpaceOnUse">
<stop stop-color="#FD8368"/>
<stop offset="0.166667" stop-color="#FF527D"/>
<stop offset="0.651042" stop-color="#A2287F"/>
</linearGradient>
<linearGradient id="paint5_linear_2459_52909" x1="24.582" y1="144.512" x2="4.13581" y2="161.963" gradientUnits="userSpaceOnUse">
<stop stop-color="#FD8368"/>
<stop offset="0.166667" stop-color="#FF527D"/>
<stop offset="0.651042" stop-color="#A2287F"/>
</linearGradient>
<linearGradient id="paint6_linear_2459_52909" x1="29.2849" y1="150.434" x2="-0.579851" y2="175.923" gradientUnits="userSpaceOnUse">
<stop stop-color="#FF527D"/>
<stop offset="0.744792" stop-color="#FFAB37"/>
<stop offset="0.984375" stop-color="#FFD467"/>
</linearGradient>
<linearGradient id="paint7_linear_2459_52909" x1="73.2863" y1="209.354" x2="76.3002" y2="275.374" gradientUnits="userSpaceOnUse">
<stop stop-color="#FFFFF4"/>
<stop offset="1" stop-color="#FFFFF4" stop-opacity="0.7"/>
</linearGradient>
<linearGradient id="paint8_linear_2459_52909" x1="110.301" y1="58.6943" x2="109.258" y2="73.5203" gradientUnits="userSpaceOnUse">
<stop stop-color="#AC8600" stop-opacity="0"/>
<stop offset="0.34375" stop-color="#FFD498"/>
<stop offset="1" stop-color="#FFAB37" stop-opacity="0"/>
</linearGradient>
<linearGradient id="paint9_linear_2459_52909" x1="111.278" y1="45.8187" x2="111.278" y2="83.8468" gradientUnits="userSpaceOnUse">
<stop stop-color="#FFAB37"/>
<stop offset="0.744792" stop-color="#FFFFF4" stop-opacity="0.36"/>
</linearGradient>
<linearGradient id="paint10_linear_2459_52909" x1="7.42181" y1="-40.0566" x2="4.43866" y2="45.4047" gradientUnits="userSpaceOnUse">
<stop stop-color="#FF527D"/>
<stop offset="1" stop-color="#F0E33C"/>
</linearGradient>
<linearGradient id="paint11_linear_2459_52909" x1="7.42173" y1="-50.3252" x2="3.86981" y2="51.4303" gradientUnits="userSpaceOnUse">
<stop stop-color="#FF527D"/>
<stop offset="1" stop-color="#F0E33C"/>
</linearGradient>
<linearGradient id="paint12_linear_2459_52909" x1="7.42186" y1="-61.0392" x2="3.27652" y2="57.7164" gradientUnits="userSpaceOnUse">
<stop stop-color="#FF527D"/>
<stop offset="1" stop-color="#F0E33C"/>
</linearGradient>
<clipPath id="clip0_2459_52909">
<rect width="126.768" height="256.446" fill="white" transform="translate(0.615967)"/>
</clipPath>
<clipPath id="clip1_2459_52909">
<rect width="126.768" height="256.446" fill="white" transform="translate(0.615967)"/>
</clipPath>
<clipPath id="clip2_2459_52909">
<rect width="113.176" height="244.924" fill="white" transform="translate(7.41211 7.23389)"/>
</clipPath>
<clipPath id="clip3_2459_52909">
<rect width="113.176" height="13.6392" fill="white" transform="translate(7.41211 7.23389)"/>
</clipPath>
<clipPath id="clip4_2459_52909">
<rect width="113.176" height="13.6392" fill="white" transform="translate(7.41211 7.23389)"/>
</clipPath>
</defs>
</svg>
