<svg width="3938" height="3644" viewBox="0 0 3938 3644" fill="none" xmlns="http://www.w3.org/2000/svg">
<path opacity="0.8" fill-rule="evenodd" clip-rule="evenodd" d="M2176.89 858.874C1937.71 812.075 1771.02 495.233 1537.57 533.369C1304.23 571.486 1311.17 897.355 1131.32 1029.67C919.242 1185.71 484.141 1118.04 411.566 1361.8C341.315 1597.75 746.611 1774.41 837.502 2016.53C938.514 2285.62 691.146 2686.23 963.632 2832.45C1253.56 2988.03 1518.25 2547.76 1843.38 2556.29C2124.89 2563.68 2344.25 2909.82 2619.71 2875.89C2895.19 2841.96 3134.53 2630.33 3205.71 2388.5C3275.83 2150.32 2987.78 1914.08 2977.06 1661.96C2964.87 1375.44 3360.35 1067.95 3140.15 846.951C2910.43 616.393 2503.15 922.716 2176.89 858.874Z" stroke="url(#paint0_linear_284_423)" stroke-width="22"/>
<path opacity="0.8" fill-rule="evenodd" clip-rule="evenodd" d="M1761.11 993.874C2000.29 947.075 2166.98 630.233 2400.43 668.369C2633.77 706.486 2626.83 1032.36 2806.68 1164.67C3018.76 1320.71 3453.86 1253.04 3526.43 1496.8C3596.68 1732.75 3191.39 1909.41 3100.5 2151.53C2999.49 2420.62 3246.85 2821.23 2974.37 2967.45C2684.44 3123.03 2419.75 2682.76 2094.62 2691.29C1813.11 2698.68 1593.75 3044.82 1318.29 3010.89C1042.81 2976.96 803.473 2765.33 732.286 2523.5C662.171 2285.32 950.221 2049.08 960.944 1796.96C973.13 1510.44 577.651 1202.95 797.85 981.951C1027.57 751.393 1434.85 1057.72 1761.11 993.874Z" fill="url(#paint1_linear_284_423)"/>
<path d="M2328.04 1976.94V2934.98C2328.04 2961.44 2320.13 2986.07 2306.56 3006.63C2283.3 3042.09 2243.14 3065.49 2197.53 3065.49H758.505C712.901 3065.49 672.735 3042.09 649.477 3006.63C635.905 2986.07 628 2961.44 628 2934.98V1976.94H630.148L1390.56 1410.96C1442.47 1372.35 1513.57 1372.35 1565.48 1410.96L2325.89 1976.94H2328.04Z" fill="#FDFDFC" stroke="#355BBA" stroke-width="22.8475" stroke-miterlimit="10" stroke-linecap="round"/>
<path fill-rule="evenodd" clip-rule="evenodd" d="M785.012 1445.67H785V1447.63V2672H2157.13V1573.25H2259.98V1322H887.642C831.487 1322 785.865 1377.19 785.012 1445.67Z" fill="#B9E3FC"/>
<path d="M785 1445.67V1435.67H775V1445.67H785ZM785.012 1445.67V1455.67H794.888L795.011 1445.8L785.012 1445.67ZM785 2672H775V2682H785V2672ZM2157.13 2672V2682H2167.13V2672H2157.13ZM2157.13 1573.25V1563.25H2147.13V1573.25H2157.13ZM2259.98 1573.25V1583.25H2269.98V1573.25H2259.98ZM2259.98 1322H2269.98V1312H2259.98V1322ZM785 1455.67H785.012V1435.67H785V1455.67ZM795 1447.63V1445.67H775V1447.63H795ZM795 2672V1447.63H775V2672H795ZM2157.13 2662H785V2682H2157.13V2662ZM2147.13 1573.25V2672H2167.13V1573.25H2147.13ZM2157.13 1583.25H2259.98V1563.25H2157.13V1583.25ZM2269.98 1573.25V1322H2249.98V1573.25H2269.98ZM2259.98 1312H887.642V1332H2259.98V1312ZM887.642 1312C824.244 1312 775.909 1373.55 775.013 1445.55L795.011 1445.8C795.82 1380.84 838.73 1332 887.642 1332V1312Z" fill="#355BBA"/>
<path d="M2157 1423.21C2157 1367.86 2202.33 1323 2258.25 1323C2314.16 1323 2359.49 1367.86 2359.49 1423.21V1548.14H2466V1703L2157 1703V1423.21Z" fill="#355BBA" stroke="#355BBA" stroke-width="20"/>
<rect x="868.317" y="1605.8" width="949.036" height="42.9605" rx="21.4802" fill="#FDFDFC"/>
<rect x="1241.94" y="2037.3" width="688.669" height="42.9605" rx="21.4802" fill="#FDFDFC"/>
<rect x="932.107" y="1749" width="1047.97" height="44.2623" rx="22.1311" fill="#FDFDFC"/>
<rect x="896.958" y="1893.5" width="607.956" height="43.5585" rx="21.7793" fill="#FDFDFC"/>
<rect x="1642.91" y="1893.5" width="337.175" height="43.5585" rx="21.7793" fill="#FDFDFC"/>
<path d="M2459.46 1703.44C2514.82 1703.44 2559.7 1658.56 2559.7 1603.2V1542.66H2359.22V1603.2C2359.22 1658.56 2404.1 1703.44 2459.46 1703.44Z" fill="#B9E3FC" stroke="#355BBA" stroke-width="20"/>
<path d="M2261.87 2075.82L1558.67 2643.36C1510.78 2681.97 1445.26 2681.97 1397.37 2643.36L694.166 2075.82V2999.59H2234.59L2261.87 2075.82Z" fill="#FDFDFC"/>
<path d="M2261.87 2075.82L1558.67 2643.36C1510.78 2681.97 1445.26 2681.97 1397.37 2643.36L694.166 2075.82" stroke="#355BBA" stroke-width="22.8475" stroke-miterlimit="10" stroke-linecap="round"/>
<path d="M2306.56 3006.63C2283.3 3042.09 2243.14 3065.49 2197.54 3065.49H758.506C712.902 3065.49 672.736 3042.09 649.478 3006.63L1372.19 2468.75C1435.02 2422.01 1521.02 2422.01 1583.85 2468.75L2306.56 3006.63Z" fill="#FDFDFC" stroke="#355BBA" stroke-width="22.8475" stroke-miterlimit="10" stroke-linecap="round"/>
<path d="M2758.61 2427.45C2758.61 2427.45 2708.36 2708.39 2783.01 2853.37C2793.53 2873.78 2829.54 2924.2 2801.66 3031.68C2795.27 3056.29 2877.72 3109.94 2905 2968.82C2932.28 2827.7 2884.91 2771.25 2884.91 2745.59C2884.91 2719.92 2946.64 2514.66 2939.44 2500.55C2932.28 2486.45 2758.61 2427.42 2758.61 2427.42V2427.45Z" fill="#FFE9DC" stroke="#355BBA" stroke-width="20" stroke-miterlimit="10" stroke-linecap="round"/>
<path d="M2941.89 2391.69C2979.97 2405.97 3100.04 2582.24 3089.67 2678.16C3089.67 2678.16 3287.99 2718.33 3299.65 2802.6C3311.31 2886.86 3272.42 2853.14 3251.68 2849.26C3230.94 2845.37 3180.39 2822.03 3129.84 2822.03C3079.3 2822.03 3036.52 2838.88 3018.38 2822.03C3000.23 2805.17 2887.46 2624.99 2884.86 2583.53C2882.26 2542.07 2895.05 2374.1 2941.89 2391.69V2391.69Z" fill="#FFE9DC" stroke="#355BBA" stroke-width="20" stroke-miterlimit="10" stroke-linecap="round"/>
<path d="M2789.64 2143.78L2663.03 2033L2606 2214.34L2751.2 2238.72L2789.64 2143.78Z" fill="#FDFDFC" stroke="#355BBA" stroke-width="20" stroke-miterlimit="10" stroke-linecap="round"/>
<path d="M3034.66 2471.52C3035.06 2471.48 3035.44 2471.68 3035.63 2472.03L3101.31 2590.26C3101.58 2590.73 3101.42 2591.32 3100.96 2591.6L2920.42 2700.95C2920 2701.21 2919.45 2701.12 2919.13 2700.74L2902.95 2681.18C2902.28 2680.37 2900.97 2681.01 2901.2 2682.03L2906.08 2704C2906.23 2704.67 2905.66 2705.29 2904.97 2705.21L2722.46 2681.58C2721.97 2681.51 2721.6 2681.1 2721.59 2680.61L2717.65 2502.97C2717.63 2502.45 2718.03 2502 2718.55 2501.95L3034.66 2471.52Z" fill="#749DF5" stroke="#355BBA" stroke-width="20" stroke-miterlimit="10" stroke-linecap="round"/>
<path d="M2982.14 2360.04C3073.19 2444.35 3085.56 2490.43 3085.56 2490.43C3009.77 2546.46 2706.09 2560.82 2706.09 2549.74C2706.09 2530.81 2682.42 2272.07 2696.63 2219.99C2710.84 2167.9 2805.52 2115.84 2805.52 2115.84L2933.97 2143.27C2933.97 2143.27 2986.71 2131.41 3013.84 2144.26C3014.97 2144.79 3016.11 2145.37 3017.19 2145.95C3049.6 2163.16 3061.35 2203.86 3044.75 2236.57L2982.14 2357.77V2360.04Z" fill="#FDFDFC" stroke="#355BBA" stroke-width="20" stroke-miterlimit="10" stroke-linecap="round"/>
<path d="M3129.3 1189.8L2341.29 2089.94L2556 2277.9L3344.01 1377.76L3129.3 1189.8Z" fill="#B9E3FC" stroke="#355BBA" stroke-width="20" stroke-miterlimit="10" stroke-linecap="round"/>
<path d="M3444.1 1263.76L3344.13 1377.95L3129.42 1189.99L3229.39 1075.8C3268.9 1030.66 3337.65 1026.08 3382.8 1065.61L3433.93 1110.37C3479.06 1149.88 3483.65 1218.63 3444.12 1263.78L3444.1 1263.76Z" fill="#B9E3FC" stroke="#355BBA" stroke-width="20" stroke-miterlimit="10" stroke-linecap="round"/>
<path d="M1939.62 2653.5C1961.5 2683.01 1934.57 2757.27 1876 2829.19L1885.97 2837.92C1949.54 2770.37 2019.59 2733.83 2051.71 2751.65L2270.55 2451.42L2208.3 2396.91L1939.62 2653.5ZM2048.96 2676.54C2037.81 2689.26 2021.05 2692.82 2011.51 2684.47C2001.97 2676.12 2003.29 2659.03 2014.42 2646.31C2025.54 2633.59 2042.33 2630.04 2051.87 2638.39C2061.4 2646.74 2060.09 2663.83 2048.96 2676.54Z" fill="#B9E3FC" stroke="#355BBA" stroke-width="20" stroke-miterlimit="10" stroke-linecap="round"/>
<path d="M2160.38 2624.48L2555.99 2277.98L2341.29 2089.97L2050.07 2527.91L2160.38 2624.48Z" fill="#B9E3FC" stroke="#355BBA" stroke-width="20" stroke-miterlimit="10" stroke-linecap="round"/>
<path d="M3138.27 1137.14L3116.7 1161.79C3108.77 1170.85 3109.68 1184.62 3118.74 1192.55L3346.59 1392.02C3355.65 1399.95 3369.43 1399.04 3377.36 1389.98L3398.93 1365.33C3406.87 1356.27 3405.95 1342.5 3396.89 1334.56L3169.04 1135.1C3159.98 1127.16 3146.21 1128.08 3138.27 1137.14Z" fill="#355BBA" stroke="#355BBA" stroke-width="20" stroke-miterlimit="10" stroke-linecap="round"/>
<path d="M2941.64 2147.11C2941.64 2147.11 2924.83 2195 2853.69 2211.05C2804.13 2222.23 2805.72 2123.11 2824.93 2123.11C2844.13 2123.11 2941.64 2147.08 2941.64 2147.08V2147.11Z" stroke="#355BBA" stroke-width="12.6177" stroke-miterlimit="10"/>
<path d="M3088.1 2165.18C3262.35 2165.18 3403.6 2009.72 3403.6 1817.96C3403.6 1626.2 3262.35 1470.75 3088.1 1470.75C2913.86 1470.75 2772.61 1626.2 2772.61 1817.96C2772.61 2009.72 2913.86 2165.18 3088.1 2165.18Z" fill="#355BBA" stroke="#355BBA" stroke-width="12.6177" stroke-miterlimit="10"/>
<path d="M3304.5 1548.51C3421.98 1691.26 3416.63 1881.87 3299.3 1982.23C3082.81 2167.38 2858.72 2092.11 2741.21 1949.36C2623.72 1806.61 2619.49 1627.93 2800.92 1475.28C2919.07 1375.88 3186.99 1405.78 3304.5 1548.53V1548.51Z" fill="#355BBA" stroke="#355BBA" stroke-width="12.6177" stroke-miterlimit="10" stroke-linecap="round"/>
<path d="M3257.6 2079.12L3257.6 2079.12C3241.59 2121.49 3195.91 2144.72 3154.77 2129.17C3153.37 2128.64 3152 2128.08 3150.66 2127.48C3146.53 2131.99 3139.95 2136.92 3129.5 2141.67C3104.23 2153.18 3054.2 2164.65 2953.75 2165.33C2925.75 2165.54 2898.84 2162.82 2873.45 2157.64L3257.6 2079.12ZM3257.6 2079.12C3267.77 2052.19 3263.86 2023.37 3249.2 2001.82L3304.96 1931.62C3309.19 1926.29 3308.98 1918.68 3304.45 1913.6L3060.03 1639.29C3059.23 1638.39 3058.3 1637.59 3057.29 1636.92L2879.14 1519.36C2875.41 1516.9 2870.48 1516.17 2865.89 1518.21C2855.46 1522.83 2805.28 1545.82 2757.08 1581.46C2732.98 1599.28 2709.03 1620.5 2690.79 1644.46C2672.56 1668.41 2659.6 1695.67 2658.57 1725.36L2658.57 1725.36C2657.38 1760.4 2657.88 1789.96 2659.16 1814.17L2659.16 1814.18C2660.92 1846.96 2664.12 1869.94 2666.46 1883.37L2666.46 1883.39C2667.34 1888.37 2668.1 1892.04 2668.63 1894.43C2645.91 1953.53 2661.28 2013.58 2701.34 2061.63L2701.34 2061.63M3257.6 2079.12L2701.34 2061.63M2701.34 2061.63C2739.6 2107.52 2800.47 2142.8 2873.45 2157.64L2701.34 2061.63Z" fill="#FFE9DC" stroke="#355BBA" stroke-width="20" stroke-miterlimit="10"/>
<path d="M3155.31 1393.88C3148.14 1384.8 3127.62 1392.65 3109.53 1411.45C3108.39 1412.61 3107.31 1413.79 3106.25 1415C3106.83 1408.42 3107.13 1401.45 3107.06 1394.29C3106.63 1352.24 3094.26 1318.3 3079.4 1318.5C3064.56 1318.71 3052.85 1352.95 3053.28 1394.99C3053.71 1437.03 3066.07 1470.98 3080.94 1470.77C3084.87 1470.72 3088.61 1468.25 3091.94 1463.89C3100.5 1469.54 3118.99 1461.54 3135.52 1444.38C3153.64 1425.58 3162.5 1402.99 3155.31 1393.88V1393.88Z" fill="#355BBA" stroke="#355BBA" stroke-width="12.6177" stroke-miterlimit="10"/>
<path d="M2840.24 1994.05C2829.72 1990.35 2824.19 1978.81 2827.9 1968.26" stroke="#F8A99F" stroke-width="15" stroke-miterlimit="10" stroke-linecap="round"/>
<path d="M2952.06 1984.69C2964.85 1984.69 2975.23 1974.32 2975.23 1961.53C2975.23 1948.73 2964.85 1938.36 2952.06 1938.36C2939.27 1938.36 2928.89 1948.73 2928.89 1961.53C2928.89 1974.32 2939.27 1984.69 2952.06 1984.69Z" fill="#355BBA" stroke="#355BBA" stroke-width="12.6177" stroke-miterlimit="10"/>
<path d="M2934.27 1909.64C2968.46 1900.05 3003.72 1919.16 3013.03 1952.32" stroke="#355BBA" stroke-width="20" stroke-miterlimit="10" stroke-linecap="round"/>
<path d="M3037.99 1936.57C3037.99 1936.57 3025.67 1947.82 3010.83 1941.87" stroke="#355BBA" stroke-width="20" stroke-miterlimit="10" stroke-linecap="round"/>
<path d="M3019.64 1911.61C3019.64 1911.61 3014.32 1926.83 2996.17 1924.35" stroke="#355BBA" stroke-width="20" stroke-miterlimit="10" stroke-linecap="round"/>
<path d="M2772.79 1929.02C2785.58 1929.02 2795.95 1918.65 2795.95 1905.86C2795.95 1893.06 2785.58 1882.69 2772.79 1882.69C2759.99 1882.69 2749.62 1893.06 2749.62 1905.86C2749.62 1918.65 2759.99 1929.02 2772.79 1929.02Z" fill="#355BBA" stroke="#355BBA" stroke-width="12.6177" stroke-miterlimit="10"/>
<path d="M2831.74 1891.4C2816.17 1859.47 2778.44 1845.85 2747.48 1860.96" stroke="#355BBA" stroke-width="20" stroke-miterlimit="10" stroke-linecap="round"/>
<path d="M2742.63 1831.84C2742.63 1831.84 2742.4 1848.5 2756.74 1855.64" stroke="#355BBA" stroke-width="20" stroke-miterlimit="10" stroke-linecap="round"/>
<path d="M2773.47 1828.94C2773.47 1828.94 2765.65 1843.02 2779.55 1854.96" stroke="#355BBA" stroke-width="20" stroke-miterlimit="10" stroke-linecap="round"/>
<path d="M2863.99 2039.35C2859.52 2057.09 2847.31 2069.33 2836.71 2066.66C2826.11 2063.98 2821.11 2047.45 2825.58 2029.69" stroke="#F8A99F" stroke-width="15" stroke-miterlimit="10" stroke-linecap="round"/>
<path d="M2914.91 2694.99L2884.15 2656.28C2884.15 2656.28 2857.4 2648.58 2844.36 2636.9" stroke="#355BBA" stroke-width="20" stroke-miterlimit="10" stroke-linecap="round"/>
<path d="M2908.53 2273.08L2839.61 2241.13L2617.19 2161.24C2566.16 2162.98 2526.64 2108.17 2533.58 2088.56C2540.52 2068.95 2598.59 2064.08 2607.57 2076.12C2616.56 2088.16 2584.58 2038.14 2602.48 2031.25C2620.37 2024.36 2661.88 2094.26 2664.23 2109.46C2666.57 2124.65 2826.49 2131.59 2864.09 2162.58C2901.72 2193.57 2950.22 2204.34 2950.22 2204.34L2908.48 2273.08H2908.53Z" fill="#FFE9DC" stroke="#355BBA" stroke-width="20" stroke-miterlimit="10" stroke-linecap="round"/>
<path d="M3126.16 2120.21C3126.16 2124.4 3125.88 2128.51 3125.35 2132.57C3102.03 2143.2 3053.71 2154.65 2953.68 2155.33C2926.37 2155.54 2900.15 2152.89 2875.45 2147.84C2872.82 2139.01 2871.41 2129.75 2871.41 2120.21C2871.41 2059.34 2928.42 2010 2998.77 2010C3069.13 2010 3126.16 2059.34 3126.16 2120.21V2120.21Z" fill="#F8A99F"/>
<path d="M2742.68 1978.43C2742.68 2008.94 2729.69 2036.35 2709.02 2055.23C2670.18 2008.64 2656.3 1951.21 2679.09 1895.18C2679.09 1895.18 2677.9 1890.72 2676.31 1881.66C2715.05 1896.04 2742.68 1933.94 2742.68 1978.43Z" fill="#F8A99F"/>
<path d="M3300.28 1634.93C3227.13 1508.22 3100.09 1444.61 3016.54 1492.86C2985.14 1510.97 2964.35 1542.32 2954.51 1581.1L2871.81 1526.52C2871.81 1526.52 2672.5 1611.39 2668.54 1725.7C2667.36 1760.45 2667.86 1789.72 2669.12 1813.65C2722.65 1811.96 2782.76 1793.89 2839.28 1759.14C2849.18 1753.06 2858.64 1746.62 2867.7 1739.93C2858.34 1757.8 2852.26 1776.8 2851.07 1794.77C2850.29 1806.53 2852.1 1811.86 2858.72 1803.7C2879.64 1777.84 2900.05 1760.8 2917.87 1749.55C2908.56 1797.12 2918.75 1845.12 2944.74 1862.55C2952.09 1867.47 2957.06 1867.35 2956.5 1857.3C2954.16 1814.96 2961.63 1779.02 2970.48 1752.35C2977.78 1771.53 2986.84 1790.76 2997.74 1809.63C3046.16 1893.52 3118.21 1949.74 3185.61 1964.18C3176.58 1982.83 3164.67 1999.63 3150.41 2014.32C3146.7 2018.13 3148.11 2024.46 3153.11 2026.31C3154.83 2026.94 3156.59 2027.52 3158.41 2028.02C3200.53 2039.81 3245.95 2009.9 3261.77 1960.79C3268.56 1958.4 3275.17 1955.39 3281.51 1951.74C3365.06 1903.49 3373.49 1761.66 3300.33 1634.96L3300.28 1634.93Z" fill="#355BBA" stroke="#355BBA" stroke-width="12.6177" stroke-miterlimit="10"/>
<path d="M2960.45 2172.1C2960.46 2172.1 2960.45 2172.09 2960.45 2172.08L2878.25 2142.96C2868.83 2139.62 2858.83 2146.27 2858.27 2156.25L2851.78 2271.05C2851.39 2277.89 2855.68 2284.12 2862.21 2286.2L2915.97 2303.29C2955.97 2313.18 2995.74 2286.28 3001.47 2245.5C3005.81 2214.59 2989.04 2184.59 2960.45 2172.12C2960.45 2172.12 2960.45 2172.11 2960.45 2172.1V2172.1Z" fill="#FDFDFC" stroke="#355BBA" stroke-width="20" stroke-miterlimit="10" stroke-linecap="round"/>
<path d="M3226.36 2055.77C3185.11 2058.77 3186.77 2067.77 3177.27 2087.77" stroke="#F8A99F" stroke-width="15" stroke-miterlimit="10" stroke-linecap="round"/>
<path d="M3203.39 2078.49C3203.39 2078.49 3195.28 2067.14 3187.46 2068.99" stroke="#F8A99F" stroke-width="15" stroke-miterlimit="10" stroke-linecap="round"/>
<ellipse cx="2804.43" cy="1558.85" rx="10.1134" ry="45.2527" transform="rotate(42.7885 2804.43 1558.85)" fill="#FDFDFC"/>
<ellipse cx="2830.77" cy="1585.88" rx="7.00383" ry="18.1955" transform="rotate(42.7885 2830.77 1585.88)" fill="#FDFDFC"/>
<path d="M3332.96 811.739C3367.19 800.528 3401.01 850.437 3414.12 874.322C3435.83 912.293 3444.36 947.671 3435.05 991.029C3431.77 1007.04 3408.8 1008.97 3402.89 993.737C3387.54 954.305 3369.35 914.187 3341.6 881.353C3327.26 864.975 3294.22 824.256 3332.96 811.739Z" fill="url(#paint2_linear_284_423)"/>
<path d="M3659.45 850.189C3633.12 825.62 3581.44 856.67 3559.5 872.821C3523.83 898.136 3501.21 926.642 3491.41 969.893C3487.65 985.797 3507.68 997.218 3519.45 985.881C3549.97 956.567 3583.34 927.822 3622.33 909.71C3642.23 900.883 3689.34 877.844 3659.45 850.189Z" fill="url(#paint3_linear_284_423)"/>
<path d="M3705.01 1045.18C3706.82 1019.52 3650.76 1013.12 3624.72 1012.04C3583.11 1009.77 3547.35 1015.24 3508.62 1034.74C3494.28 1041.84 3498.36 1057.32 3514.34 1056.42C3555.7 1054.11 3598.45 1053.43 3636.75 1061.21C3655.98 1065.41 3703.12 1074.16 3705.01 1045.18Z" fill="url(#paint4_linear_284_423)"/>
<rect x="740" y="3056" width="2947" height="20" rx="10" fill="#355BBA"/>
<defs>
<linearGradient id="paint0_linear_284_423" x1="2308.96" y1="513.105" x2="1398.04" y2="2995.05" gradientUnits="userSpaceOnUse">
<stop stop-color="#B9E3FC"/>
<stop offset="0.385417" stop-color="#4B7FD2"/>
<stop offset="1" stop-color="#2C51B0"/>
</linearGradient>
<linearGradient id="paint1_linear_284_423" x1="1629.04" y1="648.105" x2="2539.96" y2="3130.05" gradientUnits="userSpaceOnUse">
<stop stop-color="#749DF5"/>
<stop offset="1" stop-color="#B9E3FC"/>
</linearGradient>
<linearGradient id="paint2_linear_284_423" x1="3369.64" y1="807.768" x2="3386.41" y2="1006.92" gradientUnits="userSpaceOnUse">
<stop stop-color="#6185E3"/>
<stop offset="0.46875" stop-color="#7DB8F7"/>
<stop offset="1" stop-color="#B9E3FC"/>
</linearGradient>
<linearGradient id="paint3_linear_284_423" x1="3627.85" y1="831.155" x2="3528.85" y2="1004.78" gradientUnits="userSpaceOnUse">
<stop stop-color="#6185E3"/>
<stop offset="0.46875" stop-color="#7DB8F7"/>
<stop offset="1" stop-color="#B9E3FC"/>
</linearGradient>
<linearGradient id="paint4_linear_284_423" x1="3699.32" y1="1020.18" x2="3506.08" y2="1071.19" gradientUnits="userSpaceOnUse">
<stop stop-color="#6185E3"/>
<stop offset="0.46875" stop-color="#7DB8F7"/>
<stop offset="1" stop-color="#B9E3FC"/>
</linearGradient>
</defs>
</svg>
