<svg width="1440" height="1024" viewBox="0 0 1440 1024" fill="none" xmlns="http://www.w3.org/2000/svg">
<g clip-path="url(#clip0_314_514)">
<rect width="1440" height="1024" fill="white"/>
<g clip-path="url(#clip1_314_514)">
<path d="M1490.63 -11.66H-4.73047V1026.49H1490.63V-11.66Z" fill="url(#paint0_linear_314_514)"/>
<path style="mix-blend-mode:multiply" d="M376.3 955.61H-48.9502L-41.9002 831.52L28.6598 679.48L35.1798 665.42C36.7498 662.05 39.7798 659.58 43.3998 658.73L91.6298 647.43C96.5698 646.27 101.71 648.32 104.5 652.56L109.64 660.35L149.32 720.59C156.2 731.02 169.93 734.43 180.88 728.4C182.67 727.41 184.68 726.9 186.71 726.9C186.92 726.9 187.13 726.9 187.35 726.92L194.55 727.3L206.81 691.57L213.44 672.27C216.48 663.41 228.01 661.21 234.1 668.34L244.72 680.78L265.87 705.53C268.25 708.31 271.76 709.87 275.41 709.77C275.66 709.77 275.91 709.77 276.17 709.77C285.84 709.77 294.78 715.05 299.43 723.57L362.61 848.22L376.31 955.61H376.3Z" fill="url(#paint1_linear_314_514)"/>
<g style="mix-blend-mode:multiply" opacity="0.15">
<path d="M102.71 668.5C102.71 668.8 102.73 669.11 102.76 669.42C103.57 676.91 94.7601 681.49 89.0901 676.53L83.4901 671.63C79.7201 668.33 73.9201 669.11 71.1501 673.28L56.1201 695.96C53.0501 700.59 46.3902 700.94 42.8502 696.66L28.6602 679.48L35.1801 665.42C36.7501 662.05 39.7801 659.58 43.4001 658.73L91.6302 647.43C96.5702 646.27 101.71 648.32 104.5 652.56L109.64 660.35C105.78 660.98 102.72 664.35 102.72 668.49L102.71 668.5Z" fill="#2E3192"/>
</g>
<g style="mix-blend-mode:multiply" opacity="0.15">
<path d="M244.71 680.79C243.08 683.96 239.86 685.79 236.52 685.79C235.02 685.79 233.5 685.42 232.09 684.65C229.19 683.05 225.65 683.14 222.83 684.87L213.72 690.47C211.5 691.83 209.04 692.12 206.8 691.59L213.43 672.29C216.47 663.43 228 661.23 234.09 668.36L244.71 680.8V680.79Z" fill="#2E3192"/>
</g>
<path d="M-334.16 855.27C-329.24 855.27 -324.51 856.09 -320.09 857.59C-320.19 856.11 -320.26 854.63 -320.26 853.13C-320.26 816.51 -290.58 786.83 -253.96 786.83C-250.91 786.83 -247.91 787.05 -244.97 787.45C-250.01 774.9 -252.81 761.22 -252.81 746.87C-252.81 695.36 -217.05 652.22 -169.02 640.85C-194.78 614.45 -210.66 578.36 -210.66 538.56C-210.66 525.41 -208.92 512.66 -205.66 500.53C-220.57 485.28 -229.77 464.42 -229.77 441.4C-229.77 406.18 -208.25 376 -177.65 363.26C-178.7 357.62 -179.28 351.82 -179.28 345.88C-179.28 293.87 -137.12 251.71 -85.11 251.71C-68.12 251.71 -52.19 256.23 -38.43 264.11C-25.66 196.23 33.93 144.88 105.51 144.88C186.41 144.88 252 210.46 252 291.37C252 312.25 247.62 332.11 239.75 350.09C249.73 346.62 260.44 344.71 271.6 344.71C325.09 344.71 368.46 388.08 368.46 441.57C368.46 452.88 366.5 463.73 362.94 473.83C363.95 473.81 364.95 473.79 365.97 473.79C450.74 473.79 519.46 542.51 519.46 627.28C519.46 648.24 515.25 668.22 507.65 686.42C515.13 684.36 522.99 683.24 531.12 683.24C579.83 683.24 619.31 722.73 619.31 771.43C619.31 788.82 614.26 805.02 605.57 818.68C610.24 817.92 615.03 817.5 619.91 817.5C668.62 817.5 708.1 856.99 708.1 905.69C708.1 954.39 668.61 993.88 619.91 993.88C589.25 993.88 562.26 978.23 546.45 954.49H370.99V945.83H256.21V1028.12H-21V945.83H-205.57V898.45C-217.67 911.37 -234.86 919.45 -253.96 919.45C-267.78 919.45 -280.6 915.22 -291.22 907.99C-295.32 927.95 -312.99 942.97 -334.16 942.97C-358.37 942.97 -378 923.34 -378 899.13C-378 874.92 -358.37 855.29 -334.16 855.29V855.27Z" fill="url(#paint2_linear_314_514)"/>
<path opacity="0.4" d="M1365.55 851.87C1361.66 851.87 1357.93 852.52 1354.44 853.7C1354.52 852.53 1354.57 851.36 1354.57 850.18C1354.57 821.27 1331.13 797.84 1302.23 797.84C1299.82 797.84 1297.46 798.02 1295.13 798.33C1299.11 788.42 1301.32 777.62 1301.32 766.29C1301.32 725.62 1273.09 691.57 1235.17 682.59C1255.51 661.75 1268.05 633.26 1268.05 601.83C1268.05 591.44 1266.67 581.38 1264.11 571.81C1275.88 559.77 1283.14 543.3 1283.14 525.13C1283.14 497.33 1266.15 473.5 1241.99 463.44C1242.82 458.99 1243.28 454.41 1243.28 449.72C1243.28 408.66 1209.99 375.37 1168.93 375.37C1155.52 375.37 1142.94 378.94 1132.08 385.16C1122 331.57 1074.96 291.03 1018.44 291.03C954.57 291.03 902.79 342.81 902.79 406.68C902.79 423.17 906.25 438.84 912.47 453.04C904.59 450.3 896.14 448.79 887.33 448.79C845.1 448.79 810.86 483.03 810.86 525.26C810.86 534.19 812.41 542.76 815.22 550.73C814.42 550.71 813.63 550.7 812.83 550.7C745.9 550.7 691.65 604.95 691.65 671.88C691.65 688.43 694.97 704.2 700.98 718.57C695.08 716.94 688.87 716.06 682.45 716.06C644 716.06 612.82 747.23 612.82 785.69C612.82 799.42 616.81 812.21 623.67 823C619.98 822.4 616.2 822.07 612.35 822.07C573.9 822.07 542.72 853.24 542.72 891.7C542.72 930.16 573.89 961.33 612.35 961.33C636.56 961.33 657.87 948.97 670.34 930.23H808.87V923.39H899.49V988.36H1118.34V923.39H1264.06V885.98C1273.61 896.18 1287.19 902.56 1302.26 902.56C1313.17 902.56 1323.29 899.22 1331.68 893.51C1334.91 909.27 1348.86 921.13 1365.58 921.13C1384.69 921.13 1400.19 905.63 1400.19 886.52C1400.19 867.41 1384.69 851.91 1365.58 851.91L1365.55 851.87Z" fill="url(#paint3_linear_314_514)"/>
<path opacity="0.4" d="M-254.21 935C-250.32 935 -246.59 935.65 -243.1 936.83C-243.18 935.66 -243.23 934.49 -243.23 933.31C-243.23 904.4 -219.79 880.97 -190.89 880.97C-188.48 880.97 -186.12 881.15 -183.79 881.46C-187.77 871.55 -189.98 860.75 -189.98 849.42C-189.98 808.75 -161.75 774.7 -123.83 765.72C-144.17 744.88 -156.71 716.39 -156.71 684.96C-156.71 674.57 -155.33 664.51 -152.77 654.94C-164.54 642.9 -171.8 626.43 -171.8 608.26C-171.8 580.46 -154.81 556.63 -130.65 546.57C-131.48 542.12 -131.94 537.54 -131.94 532.85C-131.94 491.79 -98.6501 458.5 -57.5901 458.5C-44.1801 458.5 -31.6001 462.07 -20.7401 468.29C-10.6601 414.7 36.3799 374.16 92.8999 374.16C156.77 374.16 208.55 425.94 208.55 489.81C208.55 506.3 205.09 521.97 198.87 536.17C206.75 533.43 215.2 531.92 224.01 531.92C266.24 531.92 300.48 566.16 300.48 608.39C300.48 617.32 298.93 625.89 296.12 633.86C296.92 633.84 297.71 633.83 298.51 633.83C365.44 633.83 419.69 688.08 419.69 755.01C419.69 771.56 416.37 787.33 410.36 801.7C416.26 800.07 422.47 799.19 428.89 799.19C467.34 799.19 498.52 830.36 498.52 868.82C498.52 882.55 494.53 895.34 487.67 906.13C491.36 905.53 495.14 905.2 498.99 905.2C537.44 905.2 568.62 936.37 568.62 974.83C568.62 1013.29 537.45 1044.46 498.99 1044.46C474.78 1044.46 453.47 1032.1 441 1013.36H302.47V1006.52H211.85V1071.49H-7.00006V1006.52H-152.68V969.11C-162.23 979.31 -175.81 985.69 -190.88 985.69C-201.79 985.69 -211.91 982.35 -220.3 976.64C-223.53 992.4 -237.48 1004.26 -254.2 1004.26C-273.31 1004.26 -288.81 988.76 -288.81 969.65C-288.81 950.54 -273.31 935.04 -254.2 935.04L-254.21 935Z" fill="url(#paint4_linear_314_514)"/>
<path d="M1599.09 799.75C1595.2 799.75 1591.47 800.4 1587.98 801.58C1588.06 800.41 1588.11 799.24 1588.11 798.06C1588.11 769.15 1564.67 745.72 1535.77 745.72C1533.36 745.72 1531 745.9 1528.67 746.21C1532.65 736.3 1534.86 725.5 1534.86 714.17C1534.86 673.5 1506.63 639.45 1468.71 630.47C1489.05 609.63 1501.59 581.14 1501.59 549.71C1501.59 539.32 1500.21 529.26 1497.65 519.69C1509.42 507.65 1516.68 491.18 1516.68 473.01C1516.68 445.21 1499.69 421.38 1475.53 411.32C1476.36 406.87 1476.82 402.29 1476.82 397.6C1476.82 356.54 1443.53 323.25 1402.47 323.25C1389.06 323.25 1376.48 326.82 1365.62 333.04C1355.54 279.45 1308.5 238.91 1251.98 238.91C1188.11 238.91 1136.33 290.69 1136.33 354.56C1136.33 371.05 1139.79 386.72 1146.01 400.92C1138.13 398.18 1129.68 396.67 1120.87 396.67C1078.64 396.67 1044.4 430.91 1044.4 473.14C1044.4 482.07 1045.95 490.64 1048.76 498.61C1047.96 498.59 1047.17 498.58 1046.37 498.58C979.44 498.58 925.19 552.83 925.19 619.76C925.19 636.31 928.51 652.08 934.52 666.45C928.62 664.82 922.41 663.94 915.99 663.94C877.54 663.94 846.36 695.11 846.36 733.57C846.36 747.3 850.35 760.09 857.21 770.88C853.52 770.28 849.74 769.95 845.89 769.95C807.44 769.95 776.26 801.12 776.26 839.58C776.26 878.04 807.43 909.21 845.89 909.21C870.1 909.21 891.41 896.85 903.88 878.11H1042.41V871.27H1133.03V936.24H1351.88V871.27H1497.6V833.86C1507.15 844.06 1520.73 850.44 1535.8 850.44C1546.71 850.44 1556.83 847.1 1565.22 841.39C1568.45 857.15 1582.4 869.01 1599.12 869.01C1618.23 869.01 1633.73 853.51 1633.73 834.4C1633.73 815.29 1618.23 799.79 1599.12 799.79L1599.09 799.75Z" fill="url(#paint5_linear_314_514)"/>
<path opacity="0.2" d="M767.615 171.996C833.27 106.341 833.27 -0.106972 767.615 -65.7619C701.96 -131.417 595.512 -131.417 529.857 -65.7619C464.202 -0.106961 464.202 106.341 529.857 171.996C595.512 237.651 701.96 237.651 767.615 171.996Z" fill="#FFDF00"/>
<path opacity="0.2" d="M746.394 150.775C800.33 96.8401 800.33 9.3937 746.394 -44.5416C692.459 -98.4769 605.013 -98.4769 551.077 -44.5416C497.142 9.39369 497.142 96.8401 551.077 150.775C605.013 204.711 692.459 204.711 746.394 150.775Z" fill="#FFDF00"/>
<path opacity="0.2" d="M725.182 129.562C767.401 87.3426 767.401 18.8912 725.182 -23.3284C682.962 -65.548 614.511 -65.548 572.291 -23.3284C530.071 18.8912 530.071 87.3426 572.291 129.562C614.511 171.782 682.962 171.782 725.182 129.562Z" fill="#FFDF00"/>
<path d="M648.74 131.22C691.879 131.22 726.85 96.249 726.85 53.11C726.85 9.97104 691.879 -25 648.74 -25C605.601 -25 570.63 9.97104 570.63 53.11C570.63 96.249 605.601 131.22 648.74 131.22Z" fill="#FFDF00"/>
<path style="mix-blend-mode:screen" d="M648.739 216.48C738.966 216.48 812.109 143.337 812.109 53.11C812.109 -37.1168 738.966 -110.26 648.739 -110.26C558.512 -110.26 485.369 -37.1168 485.369 53.11C485.369 143.337 558.512 216.48 648.739 216.48Z" fill="url(#paint6_radial_314_514)"/>
<path d="M1600.39 792.63H-82.4697V1081.62H1600.39V792.63Z" fill="url(#paint7_linear_314_514)"/>
<g opacity="0.4">
<path d="M598.142 888.933C571.812 888.933 550.463 890.657 550.463 892.789C550.463 894.922 571.812 896.645 598.142 896.645C624.471 896.645 645.82 894.922 645.82 892.789C645.82 890.657 624.471 888.933 598.142 888.933Z" fill="url(#paint8_linear_314_514)"/>
<path d="M494.8 857.276C517.428 857.276 537.201 856.868 547.95 856.26C550.493 856.31 553.094 856.34 555.756 856.34C582.085 856.34 603.434 853.799 603.434 850.67C603.434 847.541 582.085 845 555.756 845C529.426 845 508.077 847.541 508.077 850.67C508.077 851.596 509.95 852.463 513.236 853.241C507.408 853.181 501.223 853.151 494.8 853.151C460.71 853.151 433.072 854.078 433.072 855.223C433.072 856.369 460.71 857.296 494.8 857.296V857.276Z" fill="url(#paint9_linear_314_514)"/>
<path d="M471.073 862.976C471.073 861.83 454.912 860.903 434.975 860.903C415.038 860.903 398.878 861.83 398.878 862.976C398.878 864.122 415.038 865.048 434.975 865.048C454.912 865.048 471.073 864.122 471.073 862.976Z" fill="url(#paint10_linear_314_514)"/>
<path d="M614.704 863.683C568.14 863.683 530.407 864.779 530.407 866.134C530.407 866.404 531.864 866.653 534.54 866.892C530.853 866.862 527.017 866.852 523.048 866.852C496.718 866.852 475.369 867.52 475.369 868.347C475.369 869.084 492.273 869.692 514.544 869.821C504.598 870.27 498.324 870.927 498.324 871.665C498.324 872.402 504.851 873.09 515.124 873.538C514.96 873.538 514.797 873.538 514.633 873.538C488.303 873.538 466.954 874.634 466.954 875.989C466.954 877.344 488.303 878.441 514.633 878.441C540.963 878.441 562.312 877.344 562.312 875.989C562.312 875.242 555.785 874.564 545.512 874.116C545.676 874.116 545.839 874.116 546.003 874.116C572.332 874.116 593.682 873.02 593.682 871.665C593.682 870.549 579.29 869.612 559.562 869.313C566.534 869.054 570.727 868.715 570.727 868.357C570.727 868.317 570.667 868.277 570.563 868.237C583.408 868.466 598.513 868.596 614.704 868.596C661.267 868.596 699 867.5 699 866.144C699 864.789 661.252 863.693 614.704 863.693V863.683Z" fill="url(#paint11_linear_314_514)"/>
<path d="M450.749 886.243C404.185 886.243 366.453 887.339 366.453 888.694C366.453 888.963 367.91 889.212 370.586 889.451C366.899 889.421 363.063 889.411 359.094 889.411C332.764 889.411 311.415 890.079 311.415 890.906C311.415 891.643 328.319 892.251 350.59 892.381C340.644 892.829 334.37 893.487 334.37 894.224C334.37 894.962 340.896 895.649 351.169 896.097C351.006 896.097 350.842 896.097 350.679 896.097C324.349 896.097 303 897.194 303 898.549C303 899.904 324.349 901 350.679 901C377.008 901 398.358 899.904 398.358 898.549C398.358 897.801 391.831 897.124 381.558 896.675C381.721 896.675 381.885 896.675 382.048 896.675C408.378 896.675 429.727 895.579 429.727 894.224C429.727 893.108 415.336 892.171 395.607 891.873C402.58 891.613 406.772 891.275 406.772 890.916C406.772 890.876 406.713 890.836 406.609 890.796C419.454 891.026 434.559 891.155 450.749 891.155C497.313 891.155 535.046 890.059 535.046 888.704C535.046 887.349 497.298 886.253 450.749 886.253V886.243Z" fill="url(#paint12_linear_314_514)"/>
</g>
<g opacity="0.4">
<path d="M860.142 952.933C833.812 952.933 812.463 954.657 812.463 956.789C812.463 958.922 833.812 960.645 860.142 960.645C886.471 960.645 907.82 958.922 907.82 956.789C907.82 954.657 886.471 952.933 860.142 952.933Z" fill="url(#paint13_linear_314_514)"/>
<path d="M756.8 921.276C779.428 921.276 799.201 920.868 809.95 920.26C812.493 920.31 815.094 920.34 817.756 920.34C844.085 920.34 865.434 917.799 865.434 914.67C865.434 911.541 844.085 909 817.756 909C791.426 909 770.077 911.541 770.077 914.67C770.077 915.596 771.95 916.463 775.236 917.241C769.408 917.181 763.223 917.151 756.8 917.151C722.71 917.151 695.072 918.078 695.072 919.223C695.072 920.369 722.71 921.296 756.8 921.296V921.276Z" fill="url(#paint14_linear_314_514)"/>
<path d="M733.073 926.976C733.073 925.83 716.912 924.903 696.975 924.903C677.038 924.903 660.878 925.83 660.878 926.976C660.878 928.122 677.038 929.048 696.975 929.048C716.912 929.048 733.073 928.122 733.073 926.976Z" fill="url(#paint15_linear_314_514)"/>
<path d="M876.704 927.683C830.14 927.683 792.407 928.779 792.407 930.134C792.407 930.404 793.864 930.653 796.54 930.892C792.853 930.862 789.017 930.852 785.048 930.852C758.718 930.852 737.369 931.52 737.369 932.347C737.369 933.084 754.273 933.692 776.544 933.821C766.598 934.27 760.324 934.927 760.324 935.665C760.324 936.402 766.851 937.09 777.124 937.538C776.96 937.538 776.797 937.538 776.633 937.538C750.303 937.538 728.954 938.634 728.954 939.989C728.954 941.344 750.303 942.441 776.633 942.441C802.963 942.441 824.312 941.344 824.312 939.989C824.312 939.242 817.785 938.564 807.512 938.116C807.676 938.116 807.839 938.116 808.003 938.116C834.332 938.116 855.682 937.02 855.682 935.665C855.682 934.549 841.29 933.612 821.562 933.313C828.534 933.054 832.727 932.715 832.727 932.357C832.727 932.317 832.667 932.277 832.563 932.237C845.408 932.466 860.513 932.596 876.704 932.596C923.267 932.596 961 931.5 961 930.144C961 928.789 923.252 927.693 876.704 927.693V927.683Z" fill="url(#paint16_linear_314_514)"/>
<path d="M712.749 950.243C666.185 950.243 628.453 951.339 628.453 952.694C628.453 952.963 629.91 953.212 632.586 953.451C628.899 953.421 625.063 953.411 621.094 953.411C594.764 953.411 573.415 954.079 573.415 954.906C573.415 955.643 590.319 956.251 612.59 956.381C602.644 956.829 596.37 957.487 596.37 958.224C596.37 958.962 602.896 959.649 613.169 960.097C613.006 960.097 612.842 960.097 612.679 960.097C586.349 960.097 565 961.194 565 962.549C565 963.904 586.349 965 612.679 965C639.008 965 660.358 963.904 660.358 962.549C660.358 961.801 653.831 961.124 643.558 960.675C643.721 960.675 643.885 960.675 644.048 960.675C670.378 960.675 691.727 959.579 691.727 958.224C691.727 957.108 677.336 956.171 657.607 955.873C664.58 955.613 668.772 955.275 668.772 954.916C668.772 954.876 668.713 954.836 668.609 954.796C681.454 955.026 696.559 955.155 712.749 955.155C759.313 955.155 797.046 954.059 797.046 952.704C797.046 951.349 759.298 950.253 712.749 950.253V950.243Z" fill="url(#paint17_linear_314_514)"/>
</g>
<g opacity="0.4">
<path d="M1058.14 860.933C1031.81 860.933 1010.46 862.657 1010.46 864.789C1010.46 866.922 1031.81 868.645 1058.14 868.645C1084.47 868.645 1105.82 866.922 1105.82 864.789C1105.82 862.657 1084.47 860.933 1058.14 860.933Z" fill="url(#paint18_linear_314_514)"/>
<path d="M954.8 829.276C977.428 829.276 997.201 828.868 1007.95 828.26C1010.49 828.31 1013.09 828.34 1015.76 828.34C1042.09 828.34 1063.43 825.799 1063.43 822.67C1063.43 819.541 1042.09 817 1015.76 817C989.426 817 968.077 819.541 968.077 822.67C968.077 823.596 969.95 824.463 973.236 825.241C967.408 825.181 961.223 825.151 954.8 825.151C920.71 825.151 893.072 826.078 893.072 827.223C893.072 828.369 920.71 829.296 954.8 829.296V829.276Z" fill="url(#paint19_linear_314_514)"/>
<path d="M931.073 834.976C931.073 833.83 914.912 832.903 894.975 832.903C875.038 832.903 858.878 833.83 858.878 834.976C858.878 836.122 875.038 837.048 894.975 837.048C914.912 837.048 931.073 836.122 931.073 834.976Z" fill="url(#paint20_linear_314_514)"/>
<path d="M1074.7 835.683C1028.14 835.683 990.407 836.779 990.407 838.134C990.407 838.404 991.864 838.653 994.54 838.892C990.853 838.862 987.017 838.852 983.048 838.852C956.718 838.852 935.369 839.52 935.369 840.347C935.369 841.084 952.273 841.692 974.544 841.821C964.598 842.27 958.324 842.927 958.324 843.665C958.324 844.402 964.851 845.09 975.124 845.538C974.96 845.538 974.797 845.538 974.633 845.538C948.303 845.538 926.954 846.634 926.954 847.989C926.954 849.344 948.303 850.441 974.633 850.441C1000.96 850.441 1022.31 849.344 1022.31 847.989C1022.31 847.242 1015.79 846.564 1005.51 846.116C1005.68 846.116 1005.84 846.116 1006 846.116C1032.33 846.116 1053.68 845.02 1053.68 843.665C1053.68 842.549 1039.29 841.612 1019.56 841.313C1026.53 841.054 1030.73 840.715 1030.73 840.357C1030.73 840.317 1030.67 840.277 1030.56 840.237C1043.41 840.466 1058.51 840.596 1074.7 840.596C1121.27 840.596 1159 839.5 1159 838.144C1159 836.789 1121.25 835.693 1074.7 835.693V835.683Z" fill="url(#paint21_linear_314_514)"/>
<path d="M910.749 858.243C864.185 858.243 826.453 859.339 826.453 860.694C826.453 860.963 827.91 861.212 830.586 861.451C826.899 861.421 823.063 861.411 819.094 861.411C792.764 861.411 771.415 862.079 771.415 862.906C771.415 863.643 788.319 864.251 810.59 864.381C800.644 864.829 794.37 865.487 794.37 866.224C794.37 866.962 800.896 867.649 811.169 868.097C811.006 868.097 810.842 868.097 810.679 868.097C784.349 868.097 763 869.194 763 870.549C763 871.904 784.349 873 810.679 873C837.008 873 858.358 871.904 858.358 870.549C858.358 869.801 851.831 869.124 841.558 868.675C841.721 868.675 841.885 868.675 842.048 868.675C868.378 868.675 889.727 867.579 889.727 866.224C889.727 865.108 875.336 864.171 855.607 863.873C862.58 863.613 866.772 863.275 866.772 862.916C866.772 862.876 866.713 862.836 866.609 862.796C879.454 863.026 894.559 863.155 910.749 863.155C957.313 863.155 995.046 862.059 995.046 860.704C995.046 859.349 957.298 858.253 910.749 858.253V858.243Z" fill="url(#paint22_linear_314_514)"/>
</g>
<path style="mix-blend-mode:overlay" d="M479.46 762.92C482.31 762.92 484.62 760.61 484.62 757.76C484.62 754.91 482.31 752.6 479.46 752.6C476.61 752.6 474.3 754.91 474.3 757.76C474.3 760.61 476.61 762.92 479.46 762.92Z" fill="url(#paint23_radial_314_514)"/>
<g opacity="0.7">
<path style="mix-blend-mode:overlay" d="M704.33 769.39C714.569 769.39 722.87 761.089 722.87 750.85C722.87 740.611 714.569 732.31 704.33 732.31C694.091 732.31 685.79 740.611 685.79 750.85C685.79 761.089 694.091 769.39 704.33 769.39Z" fill="url(#paint24_radial_314_514)"/>
<path d="M712.41 752.77L707.71 750.25L710.23 745.55C710.58 744.9 710.33 744.09 709.68 743.74C709.03 743.39 708.22 743.64 707.87 744.29L705.35 748.99L700.65 746.47C700 746.12 699.19 746.37 698.84 747.02C698.49 747.67 698.74 748.48 699.39 748.83L704.09 751.35L701.57 756.05C701.22 756.7 701.47 757.51 702.12 757.86C702.77 758.21 703.58 757.96 703.93 757.31L706.45 752.61L711.15 755.13C711.8 755.48 712.61 755.23 712.96 754.58C713.31 753.93 713.06 753.12 712.41 752.77Z" fill="#FEFFFF"/>
<path style="mix-blend-mode:overlay" d="M785.92 790.08C793.42 790.08 799.5 784 799.5 776.5C799.5 769 793.42 762.92 785.92 762.92C778.42 762.92 772.34 769 772.34 776.5C772.34 784 778.42 790.08 785.92 790.08Z" fill="url(#paint25_radial_314_514)"/>
<path d="M779.7 775.05L784.55 777.27L782.33 782.12C782.02 782.79 782.32 783.58 782.99 783.89C783.66 784.2 784.45 783.9 784.76 783.23L786.98 778.38L791.83 780.6C792.5 780.91 793.29 780.61 793.6 779.94C793.91 779.27 793.61 778.48 792.94 778.17L788.09 775.95L790.31 771.1C790.62 770.43 790.32 769.64 789.65 769.33C788.98 769.02 788.19 769.32 787.88 769.99L785.66 774.84L780.81 772.62C780.14 772.31 779.35 772.61 779.04 773.28C778.73 773.95 779.03 774.74 779.7 775.05Z" fill="#FEFFFF"/>
<path style="mix-blend-mode:overlay" d="M525.75 765.37C533.25 765.37 539.33 759.29 539.33 751.79C539.33 744.29 533.25 738.21 525.75 738.21C518.25 738.21 512.17 744.29 512.17 751.79C512.17 759.29 518.25 765.37 525.75 765.37Z" fill="url(#paint26_radial_314_514)"/>
<path style="mix-blend-mode:overlay" d="M468.89 787.83C476.279 787.83 482.27 781.84 482.27 774.45C482.27 767.061 476.279 761.07 468.89 761.07C461.5 761.07 455.51 767.061 455.51 774.45C455.51 781.84 461.5 787.83 468.89 787.83Z" fill="url(#paint27_radial_314_514)"/>
<path d="M474.96 770.26L470.19 772.65L467.8 767.88C467.47 767.22 466.67 766.95 466.01 767.28C465.35 767.61 465.08 768.41 465.41 769.07L467.8 773.84L463.03 776.23C462.37 776.56 462.1 777.36 462.43 778.02C462.76 778.68 463.56 778.95 464.22 778.62L468.99 776.23L471.38 781C471.71 781.66 472.51 781.93 473.17 781.6C473.83 781.27 474.1 780.47 473.77 779.81L471.38 775.04L476.15 772.65C476.81 772.32 477.08 771.52 476.75 770.86C476.42 770.2 475.62 769.93 474.96 770.26Z" fill="#FEFFFF"/>
<path d="M531.93 747.14L527.16 749.53L524.77 744.76C524.44 744.1 523.64 743.83 522.98 744.16C522.32 744.49 522.05 745.29 522.38 745.95L524.77 750.72L520 753.11C519.34 753.44 519.07 754.24 519.4 754.9C519.73 755.56 520.53 755.83 521.19 755.5L525.96 753.11L528.35 757.88C528.68 758.54 529.48 758.81 530.14 758.48C530.8 758.15 531.07 757.35 530.74 756.69L528.35 751.92L533.12 749.53C533.78 749.2 534.05 748.4 533.72 747.74C533.39 747.08 532.59 746.81 531.93 747.14Z" fill="#FEFFFF"/>
<path d="M481.94 757.12L479.64 756.84L479.92 754.54C479.96 754.22 479.73 753.93 479.42 753.89C479.1 753.85 478.81 754.08 478.77 754.39L478.49 756.69L476.19 756.41C475.87 756.37 475.58 756.6 475.54 756.91C475.5 757.22 475.73 757.52 476.04 757.56L478.34 757.84L478.06 760.14C478.02 760.46 478.25 760.75 478.56 760.79C478.88 760.83 479.17 760.6 479.21 760.29L479.49 757.99L481.79 758.27C482.11 758.31 482.4 758.08 482.44 757.77C482.48 757.46 482.25 757.16 481.94 757.12Z" fill="#FEFFFF"/>
<path d="M759 743.49L763.85 745.71L761.63 750.56C761.32 751.23 761.62 752.02 762.29 752.33C762.96 752.64 763.75 752.34 764.06 751.67L766.28 746.82L771.13 749.04C771.8 749.35 772.59 749.05 772.9 748.38C773.21 747.71 772.91 746.92 772.24 746.61L767.39 744.39L769.61 739.54C769.92 738.87 769.62 738.08 768.95 737.77C768.28 737.46 767.49 737.76 767.18 738.43L764.96 743.28L760.11 741.06C759.44 740.75 758.65 741.05 758.34 741.72C758.03 742.39 758.33 743.18 759 743.49Z" fill="#FEFFFF"/>
<path style="mix-blend-mode:overlay" d="M766.65 751.23C771.587 751.23 775.59 747.228 775.59 742.29C775.59 737.353 771.587 733.35 766.65 733.35C761.713 733.35 757.71 737.353 757.71 742.29C757.71 747.228 761.713 751.23 766.65 751.23Z" fill="url(#paint28_radial_314_514)"/>
<path d="M618.689 767.86L618.989 773.19L613.659 773.49C612.919 773.53 612.359 774.16 612.399 774.9C612.439 775.64 613.069 776.2 613.809 776.16L619.139 775.86L619.439 781.19C619.479 781.93 620.109 782.49 620.849 782.45C621.589 782.41 622.149 781.78 622.109 781.04L621.809 775.71L627.139 775.41C627.879 775.37 628.439 774.74 628.399 774C628.359 773.26 627.729 772.7 626.989 772.74L621.659 773.04L621.359 767.71C621.319 766.97 620.689 766.41 619.949 766.45C619.209 766.49 618.649 767.12 618.689 767.86Z" fill="#FEFFFF"/>
<path style="mix-blend-mode:overlay" d="M618.149 788.08C625.649 788.08 631.729 782 631.729 774.5C631.729 767 625.649 760.92 618.149 760.92C610.649 760.92 604.569 767 604.569 774.5C604.569 782 610.649 788.08 618.149 788.08Z" fill="url(#paint29_radial_314_514)"/>
<path style="mix-blend-mode:overlay" d="M551.68 775.66C559.18 775.66 565.26 769.58 565.26 762.08C565.26 754.58 559.18 748.5 551.68 748.5C544.18 748.5 538.1 754.58 538.1 762.08C538.1 769.58 544.18 775.66 551.68 775.66Z" fill="url(#paint30_radial_314_514)"/>
</g>
<g opacity="0.7">
<path style="mix-blend-mode:overlay" d="M1133.08 761.17C1143.32 761.17 1151.62 752.869 1151.62 742.63C1151.62 732.391 1143.32 724.09 1133.08 724.09C1122.84 724.09 1114.54 732.391 1114.54 742.63C1114.54 752.869 1122.84 761.17 1133.08 761.17Z" fill="url(#paint31_radial_314_514)"/>
<path d="M1141.16 744.55L1136.46 742.03L1138.98 737.33C1139.33 736.68 1139.08 735.87 1138.43 735.52C1137.78 735.17 1136.97 735.42 1136.62 736.07L1134.1 740.77L1129.4 738.25C1128.75 737.9 1127.94 738.15 1127.59 738.8C1127.24 739.45 1127.49 740.26 1128.14 740.61L1132.84 743.13L1130.32 747.83C1129.97 748.48 1130.22 749.29 1130.87 749.64C1131.52 749.99 1132.33 749.74 1132.68 749.09L1135.2 744.39L1139.9 746.91C1140.55 747.26 1141.36 747.01 1141.71 746.36C1142.06 745.71 1141.81 744.9 1141.16 744.55Z" fill="#FEFFFF"/>
<path style="mix-blend-mode:overlay" d="M1214.68 781.86C1222.18 781.86 1228.26 775.78 1228.26 768.28C1228.26 760.78 1222.18 754.7 1214.68 754.7C1207.18 754.7 1201.1 760.78 1201.1 768.28C1201.1 775.78 1207.18 781.86 1214.68 781.86Z" fill="url(#paint32_radial_314_514)"/>
<path d="M1208.45 766.83L1213.3 769.05L1211.08 773.9C1210.77 774.57 1211.07 775.36 1211.74 775.67C1212.41 775.98 1213.2 775.68 1213.51 775.01L1215.73 770.16L1220.58 772.38C1221.25 772.69 1222.04 772.39 1222.35 771.72C1222.66 771.05 1222.36 770.26 1221.69 769.95L1216.84 767.73L1219.06 762.88C1219.37 762.21 1219.07 761.42 1218.4 761.11C1217.73 760.8 1216.94 761.1 1216.63 761.77L1214.41 766.62L1209.56 764.4C1208.89 764.09 1208.1 764.39 1207.79 765.06C1207.48 765.73 1207.78 766.52 1208.45 766.83Z" fill="#FEFFFF"/>
<path style="mix-blend-mode:overlay" d="M954.5 757.15C962 757.15 968.08 751.07 968.08 743.57C968.08 736.07 962 729.99 954.5 729.99C947 729.99 940.92 736.07 940.92 743.57C940.92 751.07 947 757.15 954.5 757.15Z" fill="url(#paint33_radial_314_514)"/>
<path style="mix-blend-mode:overlay" d="M897.64 779.61C905.029 779.61 911.02 773.62 911.02 766.23C911.02 758.84 905.029 752.85 897.64 752.85C890.25 752.85 884.26 758.84 884.26 766.23C884.26 773.62 890.25 779.61 897.64 779.61Z" fill="url(#paint34_radial_314_514)"/>
<path d="M903.71 762.05L898.94 764.44L896.55 759.67C896.22 759.01 895.42 758.74 894.76 759.07C894.1 759.4 893.83 760.2 894.16 760.86L896.55 765.63L891.78 768.02C891.12 768.35 890.85 769.15 891.18 769.81C891.51 770.47 892.31 770.74 892.97 770.41L897.74 768.02L900.13 772.79C900.46 773.45 901.26 773.72 901.92 773.39C902.58 773.06 902.85 772.26 902.52 771.6L900.13 766.83L904.9 764.44C905.56 764.11 905.83 763.31 905.5 762.65C905.17 761.99 904.37 761.72 903.71 762.05Z" fill="#FEFFFF"/>
<path d="M960.68 738.92L955.91 741.31L953.52 736.54C953.19 735.88 952.39 735.61 951.73 735.94C951.07 736.27 950.8 737.07 951.13 737.73L953.52 742.5L948.75 744.89C948.09 745.22 947.82 746.02 948.15 746.68C948.48 747.34 949.28 747.61 949.94 747.28L954.71 744.89L957.1 749.66C957.43 750.32 958.23 750.59 958.89 750.26C959.55 749.93 959.82 749.13 959.49 748.47L957.1 743.7L961.87 741.31C962.53 740.98 962.8 740.18 962.47 739.52C962.14 738.86 961.34 738.59 960.68 738.92Z" fill="#FEFFFF"/>
<path d="M910.69 748.91L908.39 748.63L908.67 746.33C908.71 746.01 908.48 745.72 908.17 745.68C907.85 745.64 907.56 745.87 907.52 746.18L907.24 748.48L904.94 748.2C904.62 748.16 904.33 748.39 904.29 748.7C904.25 749.01 904.48 749.31 904.79 749.35L907.09 749.63L906.81 751.93C906.77 752.25 907 752.54 907.31 752.58C907.63 752.62 907.92 752.39 907.96 752.08L908.24 749.78L910.54 750.06C910.86 750.1 911.15 749.87 911.19 749.56C911.23 749.25 911 748.95 910.69 748.91Z" fill="#FEFFFF"/>
<path d="M1187.75 735.27L1192.6 737.49L1190.38 742.34C1190.07 743.01 1190.37 743.8 1191.04 744.11C1191.71 744.42 1192.5 744.12 1192.81 743.45L1195.03 738.6L1199.88 740.82C1200.55 741.13 1201.34 740.83 1201.65 740.16C1201.96 739.49 1201.66 738.7 1200.99 738.39L1196.14 736.17L1198.36 731.32C1198.67 730.65 1198.37 729.86 1197.7 729.55C1197.03 729.24 1196.24 729.54 1195.93 730.21L1193.71 735.06L1188.86 732.84C1188.19 732.53 1187.4 732.83 1187.09 733.5C1186.78 734.17 1187.08 734.96 1187.75 735.27Z" fill="#FEFFFF"/>
<path style="mix-blend-mode:overlay" d="M1195.4 743.01C1200.34 743.01 1204.34 739.008 1204.34 734.07C1204.34 729.133 1200.34 725.13 1195.4 725.13C1190.46 725.13 1186.46 729.133 1186.46 734.07C1186.46 739.008 1190.46 743.01 1195.4 743.01Z" fill="url(#paint35_radial_314_514)"/>
<path d="M1047.45 759.64L1047.75 764.97L1042.42 765.27C1041.68 765.31 1041.12 765.94 1041.16 766.68C1041.2 767.42 1041.83 767.98 1042.57 767.94L1047.9 767.64L1048.2 772.97C1048.24 773.71 1048.87 774.27 1049.61 774.23C1050.35 774.19 1050.91 773.56 1050.87 772.82L1050.57 767.49L1055.9 767.19C1056.64 767.15 1057.2 766.52 1057.16 765.78C1057.12 765.04 1056.49 764.48 1055.75 764.52L1050.42 764.82L1050.12 759.49C1050.08 758.75 1049.45 758.19 1048.71 758.23C1047.97 758.27 1047.41 758.9 1047.45 759.64Z" fill="#FEFFFF"/>
<path style="mix-blend-mode:overlay" d="M1046.9 779.86C1054.4 779.86 1060.48 773.78 1060.48 766.28C1060.48 758.78 1054.4 752.7 1046.9 752.7C1039.4 752.7 1033.32 758.78 1033.32 766.28C1033.32 773.78 1039.4 779.86 1046.9 779.86Z" fill="url(#paint36_radial_314_514)"/>
<path style="mix-blend-mode:overlay" d="M980.43 767.45C987.93 767.45 994.01 761.37 994.01 753.87C994.01 746.37 987.93 740.29 980.43 740.29C972.93 740.29 966.85 746.37 966.85 753.87C966.85 761.37 972.93 767.45 980.43 767.45Z" fill="url(#paint37_radial_314_514)"/>
</g>
<path d="M470.38 438.08L594.83 385.07L553.35 431.16L657.06 450.75L638.62 458.82L470.38 438.08Z" fill="url(#paint38_radial_314_514)"/>
<path d="M620.69 426.4L689.21 397.22L666.37 422.6L723.48 433.38L713.32 437.82L620.69 426.4Z" fill="url(#paint39_radial_314_514)"/>
<path d="M665 494.39L548.49 466.59L553.83 479.42L580.56 488.51L570.4 508.82L623.31 571.35L603.54 512.02L648.43 498.66L686.92 502.94L682.64 498.66L665 494.39Z" fill="url(#paint40_radial_314_514)"/>
<path d="M704.52 543.14L666.18 533.99L667.94 538.22L676.73 541.21L673.39 547.89L690.8 568.47L684.29 548.95L699.07 544.55L711.74 545.96L710.33 544.55L704.52 543.14Z" fill="url(#paint41_radial_314_514)"/>
<path d="M1115.93 620.48H1404.21C1406.99 613.9 1408.51 606.68 1408.51 599.07C1408.51 568.56 1383.78 543.84 1353.28 543.84C1347.5 543.84 1341.92 544.74 1336.68 546.38C1336.7 545.84 1336.72 545.3 1336.72 544.76C1336.72 505.61 1304.99 473.88 1265.84 473.88C1226.69 473.88 1194.96 505.61 1194.96 544.76C1194.96 550.5 1195.66 556.1 1196.96 561.44C1194.24 560.8 1191.42 560.4 1188.52 560.4C1168.69 560.4 1152.61 576.48 1152.61 596.31C1152.61 598.71 1152.87 601.03 1153.31 603.31C1149.45 600.63 1144.77 599.07 1139.73 599.07C1127.37 599.07 1117.2 608.45 1115.94 620.48H1115.93Z" fill="url(#paint42_linear_314_514)"/>
<path d="M218.12 667.24H506.4C509.18 660.66 510.7 653.44 510.7 645.83C510.7 615.32 485.97 590.6 455.47 590.6C449.69 590.6 444.11 591.5 438.87 593.14C438.89 592.6 438.91 592.06 438.91 591.52C438.91 552.37 407.18 520.64 368.03 520.64C328.88 520.64 297.15 552.37 297.15 591.52C297.15 597.26 297.85 602.86 299.15 608.2C296.43 607.56 293.61 607.16 290.71 607.16C270.88 607.16 254.8 623.24 254.8 643.07C254.8 645.47 255.06 647.79 255.5 650.07C251.64 647.39 246.96 645.83 241.92 645.83C229.56 645.83 219.39 655.21 218.13 667.24H218.12Z" fill="url(#paint43_linear_314_514)"/>
</g>
</g>
<defs>
<linearGradient id="paint0_linear_314_514" x1="426.41" y1="985.2" x2="1089.8" y2="-16.11" gradientUnits="userSpaceOnUse">
<stop stop-color="#B3DCD4"/>
<stop offset="0.52" stop-color="#88D0CB"/>
<stop offset="1" stop-color="#00A1CF"/>
</linearGradient>
<linearGradient id="paint1_linear_314_514" x1="147.28" y1="558.98" x2="165.93" y2="1010.07" gradientUnits="userSpaceOnUse">
<stop offset="0.2" stop-color="#1B2D5A" stop-opacity="0.7"/>
<stop offset="0.72" stop-color="#97D6D8" stop-opacity="0.1"/>
</linearGradient>
<linearGradient id="paint2_linear_314_514" x1="35.86" y1="994.25" x2="437.22" y2="345.65" gradientUnits="userSpaceOnUse">
<stop stop-color="#B3DCD4" stop-opacity="0"/>
<stop offset="0.99" stop-color="#F3FAFA" stop-opacity="0.8"/>
</linearGradient>
<linearGradient id="paint3_linear_314_514" x1="1073.42" y1="961.6" x2="756.55" y2="449.54" gradientUnits="userSpaceOnUse">
<stop offset="0.61" stop-color="#B3DCD4" stop-opacity="0"/>
<stop offset="0.96" stop-color="#F3FAFA" stop-opacity="0.8"/>
</linearGradient>
<linearGradient id="paint4_linear_314_514" x1="37.9199" y1="1044.73" x2="354.79" y2="532.67" gradientUnits="userSpaceOnUse">
<stop offset="0.61" stop-color="#B3DCD4" stop-opacity="0"/>
<stop offset="0.96" stop-color="#F3FAFA" stop-opacity="0.8"/>
</linearGradient>
<linearGradient id="paint5_linear_314_514" x1="1306.97" y1="909.47" x2="990.1" y2="397.41" gradientUnits="userSpaceOnUse">
<stop stop-color="#B3DCD4" stop-opacity="0"/>
<stop offset="0.99" stop-color="#F3FAFA" stop-opacity="0.8"/>
</linearGradient>
<radialGradient id="paint6_radial_314_514" cx="0" cy="0" r="1" gradientUnits="userSpaceOnUse" gradientTransform="translate(648.739 53.11) scale(180.29 180.29)">
<stop stop-color="#FEE387"/>
<stop offset="1" stop-color="#00A1CF" stop-opacity="0"/>
</radialGradient>
<linearGradient id="paint7_linear_314_514" x1="758.96" y1="1300.14" x2="758.96" y2="810.31" gradientUnits="userSpaceOnUse">
<stop offset="0.43" stop-color="#B3DCD4"/>
<stop offset="0.59" stop-color="#88D0CB"/>
<stop offset="1" stop-color="#00A1CF"/>
</linearGradient>
<linearGradient id="paint8_linear_314_514" x1="501.476" y1="832.156" x2="501.476" y2="924.327" gradientUnits="userSpaceOnUse">
<stop stop-color="#FEFFFF"/>
<stop offset="1" stop-color="#FEFFFF" stop-opacity="0"/>
</linearGradient>
<linearGradient id="paint9_linear_314_514" x1="501.476" y1="832.156" x2="501.476" y2="924.327" gradientUnits="userSpaceOnUse">
<stop stop-color="#FEFFFF"/>
<stop offset="1" stop-color="#FEFFFF" stop-opacity="0"/>
</linearGradient>
<linearGradient id="paint10_linear_314_514" x1="501.476" y1="832.156" x2="501.476" y2="924.327" gradientUnits="userSpaceOnUse">
<stop stop-color="#FEFFFF"/>
<stop offset="1" stop-color="#FEFFFF" stop-opacity="0"/>
</linearGradient>
<linearGradient id="paint11_linear_314_514" x1="501.476" y1="832.156" x2="501.476" y2="924.327" gradientUnits="userSpaceOnUse">
<stop stop-color="#FEFFFF"/>
<stop offset="1" stop-color="#FEFFFF" stop-opacity="0"/>
</linearGradient>
<linearGradient id="paint12_linear_314_514" x1="501.476" y1="832.156" x2="501.476" y2="924.327" gradientUnits="userSpaceOnUse">
<stop stop-color="#FEFFFF"/>
<stop offset="1" stop-color="#FEFFFF" stop-opacity="0"/>
</linearGradient>
<linearGradient id="paint13_linear_314_514" x1="763.476" y1="896.156" x2="763.476" y2="988.327" gradientUnits="userSpaceOnUse">
<stop stop-color="#FEFFFF"/>
<stop offset="1" stop-color="#FEFFFF" stop-opacity="0"/>
</linearGradient>
<linearGradient id="paint14_linear_314_514" x1="763.476" y1="896.156" x2="763.476" y2="988.327" gradientUnits="userSpaceOnUse">
<stop stop-color="#FEFFFF"/>
<stop offset="1" stop-color="#FEFFFF" stop-opacity="0"/>
</linearGradient>
<linearGradient id="paint15_linear_314_514" x1="763.476" y1="896.156" x2="763.476" y2="988.327" gradientUnits="userSpaceOnUse">
<stop stop-color="#FEFFFF"/>
<stop offset="1" stop-color="#FEFFFF" stop-opacity="0"/>
</linearGradient>
<linearGradient id="paint16_linear_314_514" x1="763.476" y1="896.156" x2="763.476" y2="988.327" gradientUnits="userSpaceOnUse">
<stop stop-color="#FEFFFF"/>
<stop offset="1" stop-color="#FEFFFF" stop-opacity="0"/>
</linearGradient>
<linearGradient id="paint17_linear_314_514" x1="763.476" y1="896.156" x2="763.476" y2="988.327" gradientUnits="userSpaceOnUse">
<stop stop-color="#FEFFFF"/>
<stop offset="1" stop-color="#FEFFFF" stop-opacity="0"/>
</linearGradient>
<linearGradient id="paint18_linear_314_514" x1="961.476" y1="804.156" x2="961.476" y2="896.327" gradientUnits="userSpaceOnUse">
<stop stop-color="#FEFFFF"/>
<stop offset="1" stop-color="#FEFFFF" stop-opacity="0"/>
</linearGradient>
<linearGradient id="paint19_linear_314_514" x1="961.476" y1="804.156" x2="961.476" y2="896.327" gradientUnits="userSpaceOnUse">
<stop stop-color="#FEFFFF"/>
<stop offset="1" stop-color="#FEFFFF" stop-opacity="0"/>
</linearGradient>
<linearGradient id="paint20_linear_314_514" x1="961.476" y1="804.156" x2="961.476" y2="896.327" gradientUnits="userSpaceOnUse">
<stop stop-color="#FEFFFF"/>
<stop offset="1" stop-color="#FEFFFF" stop-opacity="0"/>
</linearGradient>
<linearGradient id="paint21_linear_314_514" x1="961.476" y1="804.156" x2="961.476" y2="896.327" gradientUnits="userSpaceOnUse">
<stop stop-color="#FEFFFF"/>
<stop offset="1" stop-color="#FEFFFF" stop-opacity="0"/>
</linearGradient>
<linearGradient id="paint22_linear_314_514" x1="961.476" y1="804.156" x2="961.476" y2="896.327" gradientUnits="userSpaceOnUse">
<stop stop-color="#FEFFFF"/>
<stop offset="1" stop-color="#FEFFFF" stop-opacity="0"/>
</linearGradient>
<radialGradient id="paint23_radial_314_514" cx="0" cy="0" r="1" gradientUnits="userSpaceOnUse" gradientTransform="translate(479.46 757.76) scale(5.16)">
<stop stop-color="#F3FAFA" stop-opacity="0.8"/>
<stop offset="1" stop-color="#B3DCD4" stop-opacity="0"/>
</radialGradient>
<radialGradient id="paint24_radial_314_514" cx="0" cy="0" r="1" gradientUnits="userSpaceOnUse" gradientTransform="translate(704.33 750.85) scale(18.54 18.54)">
<stop stop-color="#F3FAFA" stop-opacity="0.8"/>
<stop offset="1" stop-color="#B3DCD4" stop-opacity="0"/>
</radialGradient>
<radialGradient id="paint25_radial_314_514" cx="0" cy="0" r="1" gradientUnits="userSpaceOnUse" gradientTransform="translate(785.92 776.5) scale(13.58)">
<stop stop-color="#F3FAFA" stop-opacity="0.8"/>
<stop offset="1" stop-color="#B3DCD4" stop-opacity="0"/>
</radialGradient>
<radialGradient id="paint26_radial_314_514" cx="0" cy="0" r="1" gradientUnits="userSpaceOnUse" gradientTransform="translate(525.75 751.79) scale(13.58 13.58)">
<stop stop-color="#F3FAFA" stop-opacity="0.8"/>
<stop offset="1" stop-color="#B3DCD4" stop-opacity="0"/>
</radialGradient>
<radialGradient id="paint27_radial_314_514" cx="0" cy="0" r="1" gradientUnits="userSpaceOnUse" gradientTransform="translate(468.89 774.45) scale(13.38)">
<stop stop-color="#F3FAFA" stop-opacity="0.8"/>
<stop offset="1" stop-color="#B3DCD4" stop-opacity="0"/>
</radialGradient>
<radialGradient id="paint28_radial_314_514" cx="0" cy="0" r="1" gradientUnits="userSpaceOnUse" gradientTransform="translate(766.65 742.29) scale(8.94)">
<stop stop-color="#F3FAFA" stop-opacity="0.8"/>
<stop offset="1" stop-color="#B3DCD4" stop-opacity="0"/>
</radialGradient>
<radialGradient id="paint29_radial_314_514" cx="0" cy="0" r="1" gradientUnits="userSpaceOnUse" gradientTransform="translate(618.149 774.5) scale(13.58 13.58)">
<stop stop-color="#F3FAFA" stop-opacity="0.8"/>
<stop offset="1" stop-color="#B3DCD4" stop-opacity="0"/>
</radialGradient>
<radialGradient id="paint30_radial_314_514" cx="0" cy="0" r="1" gradientUnits="userSpaceOnUse" gradientTransform="translate(551.68 762.08) scale(13.58 13.58)">
<stop stop-color="#F3FAFA" stop-opacity="0.8"/>
<stop offset="1" stop-color="#B3DCD4" stop-opacity="0"/>
</radialGradient>
<radialGradient id="paint31_radial_314_514" cx="0" cy="0" r="1" gradientUnits="userSpaceOnUse" gradientTransform="translate(1133.08 742.63) scale(18.54)">
<stop stop-color="#F3FAFA" stop-opacity="0.8"/>
<stop offset="1" stop-color="#B3DCD4" stop-opacity="0"/>
</radialGradient>
<radialGradient id="paint32_radial_314_514" cx="0" cy="0" r="1" gradientUnits="userSpaceOnUse" gradientTransform="translate(1214.68 768.28) scale(13.58 13.58)">
<stop stop-color="#F3FAFA" stop-opacity="0.8"/>
<stop offset="1" stop-color="#B3DCD4" stop-opacity="0"/>
</radialGradient>
<radialGradient id="paint33_radial_314_514" cx="0" cy="0" r="1" gradientUnits="userSpaceOnUse" gradientTransform="translate(954.5 743.57) scale(13.58 13.58)">
<stop stop-color="#F3FAFA" stop-opacity="0.8"/>
<stop offset="1" stop-color="#B3DCD4" stop-opacity="0"/>
</radialGradient>
<radialGradient id="paint34_radial_314_514" cx="0" cy="0" r="1" gradientUnits="userSpaceOnUse" gradientTransform="translate(897.64 766.23) scale(13.38)">
<stop stop-color="#F3FAFA" stop-opacity="0.8"/>
<stop offset="1" stop-color="#B3DCD4" stop-opacity="0"/>
</radialGradient>
<radialGradient id="paint35_radial_314_514" cx="0" cy="0" r="1" gradientUnits="userSpaceOnUse" gradientTransform="translate(1195.4 734.07) scale(8.94)">
<stop stop-color="#F3FAFA" stop-opacity="0.8"/>
<stop offset="1" stop-color="#B3DCD4" stop-opacity="0"/>
</radialGradient>
<radialGradient id="paint36_radial_314_514" cx="0" cy="0" r="1" gradientUnits="userSpaceOnUse" gradientTransform="translate(1046.9 766.28) scale(13.58 13.58)">
<stop stop-color="#F3FAFA" stop-opacity="0.8"/>
<stop offset="1" stop-color="#B3DCD4" stop-opacity="0"/>
</radialGradient>
<radialGradient id="paint37_radial_314_514" cx="0" cy="0" r="1" gradientUnits="userSpaceOnUse" gradientTransform="translate(980.43 753.87) scale(13.58)">
<stop stop-color="#F3FAFA" stop-opacity="0.8"/>
<stop offset="1" stop-color="#B3DCD4" stop-opacity="0"/>
</radialGradient>
<radialGradient id="paint38_radial_314_514" cx="0" cy="0" r="1" gradientUnits="userSpaceOnUse" gradientTransform="translate(561.31 420.53) scale(91.25 91.25)">
<stop stop-color="#F3FAFA" stop-opacity="0.8"/>
<stop offset="1" stop-color="#B3DCD4" stop-opacity="0"/>
</radialGradient>
<radialGradient id="paint39_radial_314_514" cx="0" cy="0" r="1" gradientUnits="userSpaceOnUse" gradientTransform="translate(672.08 417.52) scale(39.07 39.07)">
<stop stop-color="#F3FAFA" stop-opacity="0.8"/>
<stop offset="1" stop-color="#B3DCD4" stop-opacity="0"/>
</radialGradient>
<radialGradient id="paint40_radial_314_514" cx="0" cy="0" r="1" gradientUnits="userSpaceOnUse" gradientTransform="translate(613.27 471.04) scale(89.23 89.23)">
<stop stop-color="#F3FAFA" stop-opacity="0.8"/>
<stop offset="1" stop-color="#B3DCD4" stop-opacity="0"/>
</radialGradient>
<radialGradient id="paint41_radial_314_514" cx="0" cy="0" r="1" gradientUnits="userSpaceOnUse" gradientTransform="translate(687.5 535.46) scale(29.37 29.37)">
<stop stop-color="#F3FAFA" stop-opacity="0.8"/>
<stop offset="1" stop-color="#B3DCD4" stop-opacity="0"/>
</radialGradient>
<linearGradient id="paint42_linear_314_514" x1="1259.03" y1="476.42" x2="1263.7" y2="671.28" gradientUnits="userSpaceOnUse">
<stop stop-color="#F3FAFA" stop-opacity="0.8"/>
<stop offset="0.92" stop-color="#B3DCD4" stop-opacity="0"/>
</linearGradient>
<linearGradient id="paint43_linear_314_514" x1="361.21" y1="523.17" x2="365.89" y2="718.03" gradientUnits="userSpaceOnUse">
<stop stop-color="#F3FAFA" stop-opacity="0.8"/>
<stop offset="0.92" stop-color="#B3DCD4" stop-opacity="0"/>
</linearGradient>
<clipPath id="clip0_314_514">
<rect width="1440" height="1024" fill="white"/>
</clipPath>
<clipPath id="clip1_314_514">
<rect width="2011.7" height="1196.62" fill="white" transform="translate(-378 -115)"/>
</clipPath>
</defs>
</svg>
